<svg version="1.1" viewBox="0.0 0.0 1024.0 768.0" fill="none" stroke="none" stroke-linecap="square" stroke-miterlimit="10" xmlns:xlink="http://www.w3.org/1999/xlink" xmlns="http://www.w3.org/2000/svg"><clipPath id="p.0"><path d="m0 0l1024.0 0l0 768.0l-1024.0 0l0 -768.0z" clip-rule="nonzero"/></clipPath><g clip-path="url(#p.0)"><path fill="#000000" fill-opacity="0.0" d="m0 0l1024.0 0l0 768.0l-1024.0 0z" fill-rule="evenodd"/><path fill="#f3f3f3" d="m403.50394 148.49606l335.49606 0l0 388.50394l-335.49606 0z" fill-rule="evenodd"/><path stroke="#000000" stroke-width="1.0" stroke-linejoin="round" stroke-linecap="butt" stroke-dasharray="1.0,3.0" d="m403.50394 148.49606l335.49606 0l0 388.50394l-335.49606 0z" fill-rule="evenodd"/><path fill="#cfe2f3" d="m410.0 200.0l0 0c0 -3.8659973 31.563934 -7.0 70.5 -7.0c38.936096 0 70.5 3.1340027 70.5 7.0l0 28.0c0 3.8659973 -31.563904 7.0 -70.5 7.0c-38.936066 0 -70.5 -3.1340027 -70.5 -7.0z" fill-rule="evenodd"/><path fill="#000000" fill-opacity="0.0" d="m551.0 200.0l0 0c0 3.8659973 -31.563904 7.0 -70.5 7.0c-38.936066 0 -70.5 -3.1340027 -70.5 -7.0" fill-rule="evenodd"/><path fill="#000000" fill-opacity="0.0" d="m410.0 200.0l0 0c0 -3.8659973 31.563934 -7.0 70.5 -7.0c38.936096 0 70.5 3.1340027 70.5 7.0l0 28.0c0 3.8659973 -31.563904 7.0 -70.5 7.0c-38.936066 0 -70.5 -3.1340027 -70.5 -7.0z" fill-rule="evenodd"/><path stroke="#000000" stroke-width="1.0" stroke-linejoin="round" stroke-linecap="butt" d="m551.0 200.0l0 0c0 3.8659973 -31.563904 7.0 -70.5 7.0c-38.936066 0 -70.5 -3.1340027 -70.5 -7.0" fill-rule="evenodd"/><path stroke="#000000" stroke-width="1.0" stroke-linejoin="round" stroke-linecap="butt" d="m410.0 200.0l0 0c0 -3.8659973 31.563934 -7.0 70.5 -7.0c38.936096 0 70.5 3.1340027 70.5 7.0l0 28.0c0 3.8659973 -31.563904 7.0 -70.5 7.0c-38.936066 0 -70.5 -3.1340027 -70.5 -7.0z" fill-rule="evenodd"/><path fill="#000000" d="m448.34308 212.3q0.78125 0 1.5625 -0.046875l0 0.890625q-0.78125 -0.0625 -1.5625 -0.0625l-1.453125 0q-0.15625 0.78125 -0.3125 1.71875l2.859375 0q-0.046875 0.78125 -0.046875 1.671875l0 2.234375q0 0.890625 0.046875 1.828125l-0.984375 0l0 -4.953125l-3.546875 0l0 5.046875l-0.984375 0q0.046875 -1.1875 0.046875 -1.921875l0 -2.1875q0 -0.828125 -0.046875 -1.71875l1.71875 0q0.203125 -1.140625 0.203125 -1.71875l-0.578125 0q-0.875 0 -1.8125 0.0625l0 -0.890625q0.984375 0.046875 1.8125 0.046875l3.078125 0zm-5.40625 6.296875q-0.53125 -0.09375 -0.9375 -0.09375q0.203125 -0.890625 0.3125 -1.3125l-1.15625 0l0 4.84375q-0.046875 0.890625 -0.671875 1.09375q-0.625 0.21875 -1.40625 0.21875q-0.109375 -0.578125 -0.359375 -1.09375q1.140625 0.09375 1.3125 -0.03125q0.1875 -0.125 0.1875 -0.65625l0 -4.375l-0.5625 0q-0.6875 0 -1.40625 0.0625l0 -0.890625q0.71875 0.046875 1.34375 0.046875l3.859375 0q-0.265625 1.046875 -0.515625 2.1875zm4.421875 -2.28125q-0.21875 0.625 -0.265625 1.609375q-0.046875 0.984375 -0.28125 2.21875q-0.234375 1.21875 -1.046875 2.03125q-0.8125 0.796875 -2.15625 1.53125q-0.46875 -0.359375 -0.9375 -0.671875q1.25 -0.46875 2.0 -1.140625q0.75 -0.6875 1.0625 -1.546875q0.3125 -0.859375 0.390625 -1.890625q0.078125 -1.046875 0.078125 -2.25l1.15625 0.109375zm-6.453125 -0.0625q-0.734375 -0.765625 -1.71875 -1.546875q0.25 -0.265625 0.5625 -0.625q0.375 0.25 0.734375 0.5625q0.671875 -0.984375 1.09375 -1.453125l-1.140625 0q-1.046875 0 -1.984375 0.046875l0 -0.875q0.9375 0.046875 1.921875 0.046875l2.5 0l0 0.78125q-0.78125 0.578125 -1.765625 2.03125l0.46875 0.40625q-0.421875 0.375 -0.671875 0.625zm6.546875 4.53125q1.984375 1.515625 2.71875 2.1875q-0.46875 0.375 -0.734375 0.6875q-0.671875 -0.6875 -1.21875 -1.1875q-0.546875 -0.484375 -1.28125 -0.90625q0.265625 -0.359375 0.515625 -0.78125zm7.96875 -8.734375q-0.25 0.25 -0.40625 0.703125q-0.15625 0.4375 -0.375 1.109375l3.328125 0q-0.09375 0.9375 -0.203125 1.59375q-0.109375 0.640625 -0.296875 1.453125q-0.171875 0.8125 -0.484375 1.71875q-0.3125 0.90625 -0.671875 1.59375q0.359375 0.40625 1.0625 0.875q0.703125 0.46875 1.734375 0.765625q1.046875 0.28125 2.21875 0.359375q1.171875 0.078125 2.375 0.03125q-0.515625 0.625 -0.625 1.1875q-1.609375 0 -2.84375 -0.234375q-1.21875 -0.234375 -1.921875 -0.46875q-0.703125 -0.234375 -1.40625 -0.71875q-0.703125 -0.5 -1.21875 -1.078125q-0.78125 0.78125 -1.515625 1.359375q-0.71875 0.578125 -2.078125 1.296875q-0.359375 -0.5625 -0.78125 -0.875q1.140625 -0.421875 2.203125 -1.140625q1.078125 -0.734375 1.546875 -1.421875q-0.625 -0.828125 -1.0 -1.65625q-0.359375 -0.84375 -0.671875 -1.71875q-0.71875 1.40625 -1.09375 1.921875q-0.40625 -0.421875 -0.9375 -0.578125q0.46875 -0.515625 0.984375 -1.390625q0.53125 -0.890625 0.859375 -1.71875q0.34375 -0.84375 0.578125 -1.78125q0.234375 -0.9375 0.34375 -1.65625q0.578125 0.3125 1.296875 0.46875zm4.796875 -0.375q-0.0625 0.78125 -0.0625 1.71875l0 5.203125q0 1.09375 0.0625 2.765625l-1.09375 0q0.046875 -1.671875 0.046875 -2.765625l0 -5.203125q0 -0.9375 -0.046875 -1.71875l1.09375 0zm-6.203125 3.953125q0.21875 0.890625 0.625 1.859375q0.421875 0.953125 1.046875 1.734375q0.421875 -0.875 0.703125 -2.0q0.28125 -1.125 0.4375 -2.46875l-2.4375 0q-0.265625 0.578125 -0.375 0.875zm7.1875 -0.984375q0.578125 0.6875 1.25 1.421875q0.671875 0.71875 1.203125 1.34375q-0.375 0.203125 -0.9375 0.78125q-0.421875 -0.625 -1.0 -1.375q-0.5625 -0.765625 -1.296875 -1.546875q0.421875 -0.25 0.78125 -0.625z" fill-rule="nonzero"/><path fill="#000000" d="m469.20245 220.31563q-1.984375 0.71875 -3.703125 1.171875q-0.15625 0.40625 -0.3125 0.15625l-0.359375 -1.171875l1.78125 -0.359375l0 -2.796875l-1.375 0l0 -0.953125l1.375 0l0 -2.703125l-1.515625 0l0 -0.953125l4.0625 0l0 0.953125l-1.53125 0l0 2.703125l1.375 0l0 0.953125l-1.375 0l0 2.546875q0.40625 -0.046875 1.46875 -0.40625l0.109375 0.859375zm4.015625 -2.390625l0 1.484375l2.84375 0l0 0.953125l-2.84375 0l0 1.578125l3.34375 0l0 0.96875l-8.078125 0l0 -0.96875l3.859375 0l0 -1.578125l-2.734375 0l0 -0.953125l2.734375 0l0 -1.484375l-1.828125 0l0 0.671875l-0.859375 0l0 -6.25l6.296875 0l0 6.046875l-0.859375 0l0 -0.46875l-1.875 0zm1.875 -2.328125l-1.875 0l0 1.515625l1.875 0l0 -1.515625zm0 -2.4375l-1.875 0l0 1.625l1.875 0l0 -1.625zm-2.75 1.625l0 -1.625l-1.828125 0l0 1.625l1.828125 0zm0 0.8125l-1.828125 0l0 1.515625l1.828125 0l0 -1.515625z" fill-rule="nonzero"/><path fill="#000000" d="m486.23355 222.3l0 -0.875q-0.65625 1.03125 -1.9375 1.03125q-0.8125 0 -1.515625 -0.453125q-0.6875 -0.453125 -1.078125 -1.265625q-0.375 -0.828125 -0.375 -1.890625q0 -1.03125 0.34375 -1.875q0.34375 -0.84375 1.03125 -1.28125q0.703125 -0.453125 1.546875 -0.453125q0.625 0 1.109375 0.265625q0.5 0.25 0.796875 0.671875l0 -3.421875l1.171875 0l0 9.546875l-1.09375 0zm-3.703125 -3.453125q0 1.328125 0.5625 1.984375q0.5625 0.65625 1.328125 0.65625q0.765625 0 1.296875 -0.625q0.53125 -0.625 0.53125 -1.90625q0 -1.421875 -0.546875 -2.078125q-0.546875 -0.671875 -1.34375 -0.671875q-0.78125 0 -1.3125 0.640625q-0.515625 0.625 -0.515625 2.0zm11.146851 2.59375q-0.65625 0.5625 -1.265625 0.796875q-0.59375 0.21875 -1.28125 0.21875q-1.140625 0 -1.75 -0.546875q-0.609375 -0.5625 -0.609375 -1.4375q0 -0.5 0.21875 -0.921875q0.234375 -0.421875 0.609375 -0.671875q0.375 -0.25 0.84375 -0.390625q0.34375 -0.078125 1.046875 -0.171875q1.421875 -0.171875 2.09375 -0.40625q0 -0.234375 0 -0.296875q0 -0.71875 -0.328125 -1.015625q-0.453125 -0.390625 -1.34375 -0.390625q-0.8125 0 -1.21875 0.296875q-0.390625 0.28125 -0.578125 1.015625l-1.140625 -0.15625q0.15625 -0.734375 0.515625 -1.1875q0.359375 -0.453125 1.03125 -0.6875q0.671875 -0.25 1.5625 -0.25q0.890625 0 1.4375 0.203125q0.5625 0.203125 0.8125 0.53125q0.265625 0.3125 0.375 0.796875q0.046875 0.296875 0.046875 1.078125l0 1.5625q0 1.625 0.078125 2.0625q0.078125 0.4375 0.296875 0.828125l-1.21875 0q-0.1875 -0.359375 -0.234375 -0.859375zm-0.09375 -2.609375q-0.640625 0.265625 -1.921875 0.4375q-0.71875 0.109375 -1.015625 0.25q-0.296875 0.125 -0.46875 0.375q-0.15625 0.25 -0.15625 0.546875q0 0.46875 0.34375 0.78125q0.359375 0.3125 1.046875 0.3125q0.671875 0 1.203125 -0.296875q0.53125 -0.296875 0.78125 -0.8125q0.1875 -0.390625 0.1875 -1.171875l0 -0.421875zm5.5531006 2.421875l0.171875 1.03125q-0.5 0.109375 -0.890625 0.109375q-0.640625 0 -1.0 -0.203125q-0.34375 -0.203125 -0.484375 -0.53125q-0.140625 -0.328125 -0.140625 -1.390625l0 -3.96875l-0.859375 0l0 -0.90625l0.859375 0l0 -1.71875l1.171875 -0.703125l0 2.421875l1.171875 0l0 0.90625l-1.171875 0l0 4.046875q0 0.5 0.046875 0.640625q0.0625 0.140625 0.203125 0.234375q0.140625 0.078125 0.40625 0.078125q0.203125 0 0.515625 -0.046875zm5.6560974 0.1875q-0.65625 0.5625 -1.265625 0.796875q-0.59375 0.21875 -1.28125 0.21875q-1.140625 0 -1.75 -0.546875q-0.609375 -0.5625 -0.609375 -1.4375q0 -0.5 0.21875 -0.921875q0.234375 -0.421875 0.609375 -0.671875q0.375 -0.25 0.84375 -0.390625q0.34375 -0.078125 1.046875 -0.171875q1.421875 -0.171875 2.09375 -0.40625q0 -0.234375 0 -0.296875q0 -0.71875 -0.328125 -1.015625q-0.453125 -0.390625 -1.34375 -0.390625q-0.8125 0 -1.21875 0.296875q-0.390625 0.28125 -0.578125 1.015625l-1.140625 -0.15625q0.15625 -0.734375 0.515625 -1.1875q0.359375 -0.453125 1.03125 -0.6875q0.671875 -0.25 1.5625 -0.25q0.890625 0 1.4375 0.203125q0.5625 0.203125 0.8125 0.53125q0.265625 0.3125 0.375 0.796875q0.046875 0.296875 0.046875 1.078125l0 1.5625q0 1.625 0.078125 2.0625q0.078125 0.4375 0.296875 0.828125l-1.21875 0q-0.1875 -0.359375 -0.234375 -0.859375zm-0.09375 -2.609375q-0.640625 0.265625 -1.921875 0.4375q-0.71875 0.109375 -1.015625 0.25q-0.296875 0.125 -0.46875 0.375q-0.15625 0.25 -0.15625 0.546875q0 0.46875 0.34375 0.78125q0.359375 0.3125 1.046875 0.3125q0.671875 0 1.203125 -0.296875q0.53125 -0.296875 0.78125 -0.8125q0.1875 -0.390625 0.1875 -1.171875l0 -0.421875zm2.5218506 1.40625l1.15625 -0.1875q0.109375 0.703125 0.546875 1.078125q0.453125 0.359375 1.25 0.359375q0.8125 0 1.203125 -0.328125q0.390625 -0.328125 0.390625 -0.765625q0 -0.390625 -0.359375 -0.625q-0.234375 -0.15625 -1.1875 -0.390625q-1.296875 -0.328125 -1.796875 -0.5625q-0.484375 -0.25 -0.75 -0.65625q-0.25 -0.421875 -0.25 -0.9375q0 -0.453125 0.203125 -0.84375q0.21875 -0.40625 0.578125 -0.671875q0.28125 -0.1875 0.75 -0.328125q0.46875 -0.140625 1.015625 -0.140625q0.8125 0 1.421875 0.234375q0.609375 0.234375 0.90625 0.640625q0.296875 0.390625 0.40625 1.0625l-1.140625 0.15625q-0.078125 -0.53125 -0.453125 -0.828125q-0.375 -0.3125 -1.0625 -0.3125q-0.8125 0 -1.15625 0.265625q-0.34375 0.265625 -0.34375 0.625q0 0.234375 0.140625 0.421875q0.15625 0.1875 0.453125 0.3125q0.171875 0.0625 1.03125 0.296875q1.25 0.328125 1.734375 0.546875q0.5 0.203125 0.78125 0.609375q0.28125 0.40625 0.28125 1.0q0 0.59375 -0.34375 1.109375q-0.34375 0.515625 -1.0 0.796875q-0.640625 0.28125 -1.453125 0.28125q-1.34375 0 -2.046875 -0.5625q-0.703125 -0.5625 -0.90625 -1.65625zm11.8671875 -0.15625l1.203125 0.140625q-0.28125 1.0625 -1.0625 1.65625q-0.765625 0.578125 -1.96875 0.578125q-1.515625 0 -2.40625 -0.9375q-0.890625 -0.9375 -0.890625 -2.609375q0 -1.75 0.890625 -2.703125q0.90625 -0.96875 2.34375 -0.96875q1.390625 0 2.265625 0.9375q0.875 0.9375 0.875 2.65625q0 0.109375 0 0.3125l-5.15625 0q0.0625 1.140625 0.640625 1.75q0.578125 0.59375 1.4375 0.59375q0.65625 0 1.109375 -0.328125q0.453125 -0.34375 0.71875 -1.078125zm-3.84375 -1.90625l3.859375 0q-0.078125 -0.859375 -0.4375 -1.296875q-0.5625 -0.6875 -1.453125 -0.6875q-0.8125 0 -1.359375 0.546875q-0.546875 0.53125 -0.609375 1.4375zm9.084351 3.078125l0.171875 1.03125q-0.5 0.109375 -0.890625 0.109375q-0.640625 0 -1.0 -0.203125q-0.34375 -0.203125 -0.484375 -0.53125q-0.140625 -0.328125 -0.140625 -1.390625l0 -3.96875l-0.859375 0l0 -0.90625l0.859375 0l0 -1.71875l1.171875 -0.703125l0 2.421875l1.171875 0l0 0.90625l-1.171875 0l0 4.046875q0 0.5 0.046875 0.640625q0.0625 0.140625 0.203125 0.234375q0.140625 0.078125 0.40625 0.078125q0.203125 0 0.515625 -0.046875z" fill-rule="nonzero"/><path fill="#cfe2f3" d="m134.5 174.50131l97.5 0c-10.7695465 0 -19.5 14.550751 -19.5 32.5c0 17.94925 8.7304535 32.5 19.5 32.5l-97.5 0l0 0c-10.769554 0 -19.5 -14.550751 -19.5 -32.5c0 -17.94925 8.730446 -32.5 19.5 -32.5z" fill-rule="evenodd"/><path stroke="#000000" stroke-width="1.0" stroke-linejoin="round" stroke-linecap="butt" d="m134.5 174.50131l97.5 0c-10.7695465 0 -19.5 14.550751 -19.5 32.5c0 17.94925 8.7304535 32.5 19.5 32.5l-97.5 0l0 0c-10.769554 0 -19.5 -14.550751 -19.5 -32.5c0 -17.94925 8.730446 -32.5 19.5 -32.5z" fill-rule="evenodd"/><path fill="#000000" d="m150.40625 211.75444q0.203125 0 0.203125 -0.203125l0 -2.953125l-1.875 0l0 0.359375l-1.015625 0l0 -4.921875l2.390625 0l0.203125 -1.328125l-4.015625 0l0 4.828125q0 3.296875 -1.21875 5.1875l-0.859375 -0.875q1.0625 -1.625 1.0625 -4.3125l0 -5.796875l10.15625 0l0 0.96875l-3.90625 0l-0.359375 1.328125l3.140625 0l0 4.875l-1.015625 0l0 -0.3125l-1.671875 0l0 3.453125q0 0.8125 -0.8125 0.8125l-1.015625 0l-0.25 -1.109375l0.859375 0zm4.109375 0.40625q-1.015625 -1.421875 -2.03125 -2.34375l0.765625 -0.703125q1.328125 0.953125 2.234375 2.234375l-0.96875 0.8125zm-5.015625 -2.34375q0.40625 0.359375 -0.109375 0.25q-1.0625 1.53125 -2.234375 2.34375l-0.703125 -0.921875q1.21875 -0.90625 2.125 -2.328125l0.921875 0.65625zm-0.765625 -2.03125l4.5625 0l0 -1.109375l-4.5625 0l0 1.109375zm0 -1.921875l4.5625 0l0 -1.015625l-4.5625 0l0 1.015625zm13.8125 0.8125q-0.25 0.296875 -0.3125 0l-0.25 -1.078125l0.921875 0q0.546875 -1.625 1.15625 -4.265625l1.21875 0.359375q0.3125 0.25 -0.203125 0.359375q-0.609375 1.828125 -1.21875 3.5l3.046875 -0.203125q-0.453125 -0.765625 -1.0625 -1.578125l0.859375 -0.40625q1.171875 1.28125 2.09375 3.109375l-1.015625 0.5l-0.40625 -0.8125l-4.828125 0.515625zm-3.0 -1.828125q-0.25 1.625 -0.65625 3.140625q0.609375 0.40625 1.21875 0.8125q0.359375 -1.265625 0.5625 -3.953125l-1.125 0zm1.375 4.515625q0.40625 0.296875 1.015625 0.8125l-0.5625 1.0625q-0.359375 -0.40625 -0.90625 -0.859375q-0.8125 1.3125 -2.390625 2.34375l-0.65625 -0.8125q1.46875 -0.96875 2.28125 -2.1875q-0.5625 -0.40625 -1.125 -0.875l-0.25 0.671875l-0.90625 -0.40625q0.75 -1.890625 1.15625 -4.265625l-1.21875 0l0 -0.96875l1.375 0q0.15625 -1.171875 0.3125 -2.390625l0.90625 0.203125q0.515625 0.15625 0 0.359375q-0.09375 0.90625 -0.25 1.828125l1.171875 0l0.203125 -0.203125l0.75 0.5l-0.140625 0.203125q-0.203125 3.3125 -0.765625 4.984375zm5.9375 2.84375l-3.203125 0l0 0.65625l-1.015625 0l0 -5.171875l5.234375 0l0 4.96875l-1.015625 0l0 -0.453125zm0 -0.96875l0 -2.59375l-3.203125 0l0 2.59375l3.203125 0zm12.09375 -2.234375q0.703125 -1.375 0.859375 -4.15625l-1.734375 0q0.15625 2.78125 0.875 4.15625zm1.875 -4.15625q-0.109375 3.140625 -1.21875 5.078125q0.8125 1.015625 2.28125 1.765625l-0.65625 1.125q-1.625 -1.0625 -2.28125 -2.03125q-1.171875 1.328125 -3.609375 2.28125l-0.515625 -1.015625q2.640625 -1.0625 3.515625 -2.1875q-0.875 -1.671875 -0.96875 -3.34375q-0.3125 0.765625 -0.609375 1.171875l-0.859375 -0.671875q1.515625 -2.234375 1.828125 -5.53125l1.0625 0.25q0.296875 0.203125 -0.15625 0.3125q-0.15625 0.90625 -0.40625 1.828125l3.453125 0l0 0.96875l-0.859375 0zm-4.71875 -2.4375q-0.3125 0.75 -0.71875 1.265625l-0.8125 -0.453125q0.40625 -0.671875 0.765625 -1.53125l0.90625 0.453125q0.203125 0.203125 -0.140625 0.265625zm-3.25 7.15625q0.703125 0.203125 1.265625 0.453125q0.40625 -0.453125 0.65625 -1.375l-1.46875 0q-0.203125 0.46875 -0.453125 0.921875zm-0.71875 1.265625l-0.8125 -0.453125q0.515625 -0.765625 1.015625 -1.734375l-1.921875 0l0 -0.8125l2.234375 0q0.296875 -0.65625 0.453125 -1.109375l0.96875 0.25q0.203125 0.203125 -0.15625 0.25l-0.3125 0.609375l2.90625 0l0 0.8125l-0.765625 0q-0.25 1.015625 -0.765625 1.734375q0.453125 0.203125 0.96875 0.5l-0.453125 0.8125q-0.5625 -0.34375 -1.015625 -0.546875q-1.328125 1.3125 -3.5625 1.625l-0.359375 -0.921875q1.984375 -0.203125 3.046875 -1.109375q-0.546875 -0.265625 -1.109375 -0.46875l-0.359375 0.5625zm1.015625 -9.546875l0.8125 0q0.40625 0.046875 0.046875 0.3125l0 2.171875l2.59375 0l0 0.8125l-2.125 0q0.546875 0.671875 1.71875 1.28125l-0.5625 0.859375q-0.859375 -0.515625 -1.625 -1.421875l0 1.21875l-0.859375 0l0 -0.96875q-0.8125 1.015625 -2.234375 1.828125l-0.65625 -0.8125q1.578125 -0.8125 2.59375 -1.984375l-2.34375 0l0 -0.8125l2.640625 0l0 -2.484375zm-1.421875 2.34375q-0.359375 -0.765625 -0.90625 -1.328125l0.8125 -0.5q0.609375 0.609375 0.90625 1.265625l-0.8125 0.5625zm15.84375 -2.03125l6.65625 0l0 3.1875l-2.28125 0l0 1.484375l2.84375 0l0 0.8125l-2.84375 0l0 1.515625l1.96875 0l0 4.21875l-0.859375 0l0 -0.5625l-3.046875 0l0 0.71875l-0.859375 0l0 -4.375l1.78125 0l0 -1.515625l-2.5 0l0 0.8125q0 3.390625 -1.46875 4.921875l-0.765625 -0.765625q1.375 -1.375 1.375 -4.359375l0 -6.09375zm5.484375 7.8125l-3.046875 0l0 2.03125l3.046875 0l0 -2.03125zm-2.125 -3.140625l0 -1.484375l-2.5 0l0 1.484375l2.5 0zm-2.5 -2.296875l4.78125 0l0 -1.5625l-4.78125 0l0 1.5625zm-1.3125 3.8125l-1.328125 0.453125l0 3.96875q0 0.8125 -0.8125 0.8125l-1.015625 0l-0.140625 -0.96875l0.75 0q0.203125 0 0.203125 -0.203125l0 -3.296875l-1.0625 0.359375q-0.046875 0.34375 -0.25 0.140625l-0.359375 -1.21875l1.671875 -0.34375l0 -2.640625l-1.421875 0l0 -0.96875l1.421875 0l0 -2.640625l0.96875 0q0.40625 0.046875 0.046875 0.296875l0 2.34375l1.328125 0l0 0.96875l-1.328125 0l0 2.4375l1.21875 -0.359375l0.109375 0.859375z" fill-rule="nonzero"/><path fill="#cfe2f3" d="m238.49606 202.0l140.2406 0l0 -9.0l24.767273 18.0l-24.767273 18.0l0 -9.0l-140.2406 0z" fill-rule="evenodd"/><path stroke="#000000" stroke-width="1.0" stroke-linejoin="round" stroke-linecap="butt" d="m238.49606 202.0l140.2406 0l0 -9.0l24.767273 18.0l-24.767273 18.0l0 -9.0l-140.2406 0z" fill-rule="evenodd"/><path fill="#000000" d="m299.93124 213.2325l1.765625 0.453125q-0.5625 2.171875 -2.0 3.328125q-1.4375 1.140625 -3.53125 1.140625q-2.15625 0 -3.515625 -0.875q-1.34375 -0.890625 -2.0625 -2.546875q-0.703125 -1.671875 -0.703125 -3.59375q0 -2.078125 0.796875 -3.625q0.796875 -1.5625 2.265625 -2.359375q1.484375 -0.8125 3.25 -0.8125q2.0 0 3.359375 1.015625q1.375 1.015625 1.90625 2.875l-1.734375 0.40625q-0.46875 -1.453125 -1.359375 -2.109375q-0.875 -0.671875 -2.203125 -0.671875q-1.546875 0 -2.578125 0.734375q-1.03125 0.734375 -1.453125 1.984375q-0.421875 1.234375 -0.421875 2.5625q0 1.703125 0.5 2.96875q0.5 1.265625 1.546875 1.90625q1.046875 0.625 2.265625 0.625q1.484375 0 2.515625 -0.859375q1.03125 -0.859375 1.390625 -2.546875zm3.722931 4.6875l0 -9.671875l1.46875 0l0 1.46875q0.5625 -1.03125 1.03125 -1.359375q0.484375 -0.328125 1.0625 -0.328125q0.828125 0 1.6875 0.53125l-0.5625 1.515625q-0.609375 -0.359375 -1.203125 -0.359375q-0.546875 0 -0.96875 0.328125q-0.421875 0.328125 -0.609375 0.890625q-0.28125 0.875 -0.28125 1.921875l0 5.0625l-1.625 0zm5.618927 -4.84375q0 -2.6875 1.484375 -3.96875q1.25 -1.078125 3.046875 -1.078125q2.0 0 3.265625 1.3125q1.265625 1.296875 1.265625 3.609375q0 1.859375 -0.5625 2.9375q-0.5625 1.0625 -1.640625 1.65625q-1.0625 0.59375 -2.328125 0.59375q-2.03125 0 -3.28125 -1.296875q-1.25 -1.3125 -1.25 -3.765625zm1.6875 0q0 1.859375 0.796875 2.796875q0.8125 0.921875 2.046875 0.921875q1.21875 0 2.03125 -0.921875q0.8125 -0.9375 0.8125 -2.84375q0 -1.796875 -0.8125 -2.71875q-0.8125 -0.921875 -2.03125 -0.921875q-1.234375 0 -2.046875 0.921875q-0.796875 0.90625 -0.796875 2.765625zm9.297607 4.84375l0 -9.671875l1.46875 0l0 1.375q1.0625 -1.59375 3.078125 -1.59375q0.875 0 1.609375 0.3125q0.734375 0.3125 1.09375 0.828125q0.375 0.5 0.515625 1.203125q0.09375 0.453125 0.09375 1.59375l0 5.953125l-1.640625 0l0 -5.890625q0 -1.0 -0.203125 -1.484375q-0.1875 -0.5 -0.671875 -0.796875q-0.484375 -0.296875 -1.140625 -0.296875q-1.046875 0 -1.8125 0.671875q-0.75 0.65625 -0.75 2.515625l0 5.28125l-1.640625 0zm15.543396 -11.453125l0 -1.90625l1.640625 0l0 1.90625l-1.640625 0zm-2.078125 15.203125l0.3125 -1.390625q0.5 0.125 0.78125 0.125q0.5 0 0.734375 -0.328125q0.25 -0.328125 0.25 -1.671875l0 -10.15625l1.640625 0l0 10.203125q0 1.78125 -0.46875 2.484375q-0.59375 0.90625 -1.96875 0.90625q-0.65625 0 -1.28125 -0.171875zm5.629181 -8.59375q0 -2.6875 1.484375 -3.96875q1.25 -1.078125 3.046875 -1.078125q2.0 0 3.265625 1.3125q1.265625 1.296875 1.265625 3.609375q0 1.859375 -0.5625 2.9375q-0.5625 1.0625 -1.640625 1.65625q-1.0625 0.59375 -2.328125 0.59375q-2.03125 0 -3.28125 -1.296875q-1.25 -1.3125 -1.25 -3.765625zm1.6875 0q0 1.859375 0.796875 2.796875q0.8125 0.921875 2.046875 0.921875q1.21875 0 2.03125 -0.921875q0.8125 -0.9375 0.8125 -2.84375q0 -1.796875 -0.8125 -2.71875q-0.8125 -0.921875 -2.03125 -0.921875q-1.234375 0 -2.046875 0.921875q-0.796875 0.90625 -0.796875 2.765625zm10.797607 4.84375l-1.515625 0l0 -13.359375l1.640625 0l0 4.765625q1.046875 -1.296875 2.65625 -1.296875q0.890625 0 1.6875 0.359375q0.796875 0.359375 1.3125 1.015625q0.515625 0.640625 0.796875 1.5625q0.296875 0.921875 0.296875 1.96875q0 2.484375 -1.234375 3.84375q-1.21875 1.359375 -2.953125 1.359375q-1.703125 0 -2.6875 -1.4375l0 1.21875zm-0.015625 -4.90625q0 1.734375 0.484375 2.515625q0.765625 1.265625 2.09375 1.265625q1.078125 0 1.859375 -0.9375q0.78125 -0.9375 0.78125 -2.78125q0 -1.890625 -0.75 -2.796875q-0.75 -0.90625 -1.828125 -0.90625q-1.0625 0 -1.859375 0.9375q-0.78125 0.9375 -0.78125 2.703125z" fill-rule="nonzero"/><path fill="#cfe2f3" d="m410.0 344.0l0 0c0 -3.8659973 31.563934 -7.0 70.5 -7.0c38.936096 0 70.5 3.1340027 70.5 7.0l0 28.0c0 3.8659973 -31.563904 7.0 -70.5 7.0c-38.936066 0 -70.5 -3.1340027 -70.5 -7.0z" fill-rule="evenodd"/><path fill="#000000" fill-opacity="0.0" d="m551.0 344.0l0 0c0 3.8659973 -31.563904 7.0 -70.5 7.0c-38.936066 0 -70.5 -3.1340027 -70.5 -7.0" fill-rule="evenodd"/><path fill="#000000" fill-opacity="0.0" d="m410.0 344.0l0 0c0 -3.8659973 31.563934 -7.0 70.5 -7.0c38.936096 0 70.5 3.1340027 70.5 7.0l0 28.0c0 3.8659973 -31.563904 7.0 -70.5 7.0c-38.936066 0 -70.5 -3.1340027 -70.5 -7.0z" fill-rule="evenodd"/><path stroke="#000000" stroke-width="1.0" stroke-linejoin="round" stroke-linecap="butt" d="m551.0 344.0l0 0c0 3.8659973 -31.563904 7.0 -70.5 7.0c-38.936066 0 -70.5 -3.1340027 -70.5 -7.0" fill-rule="evenodd"/><path stroke="#000000" stroke-width="1.0" stroke-linejoin="round" stroke-linecap="butt" d="m410.0 344.0l0 0c0 -3.8659973 31.563934 -7.0 70.5 -7.0c38.936096 0 70.5 3.1340027 70.5 7.0l0 28.0c0 3.8659973 -31.563904 7.0 -70.5 7.0c-38.936066 0 -70.5 -3.1340027 -70.5 -7.0z" fill-rule="evenodd"/><path fill="#000000" d="m440.95245 359.425q-0.046875 1.203125 -0.046875 2.234375l0 3.234375q0.671875 -0.9375 0.875 -1.25q0.265625 0.3125 0.625 0.78125q-0.671875 0.828125 -1.140625 1.4375q-0.46875 0.59375 -0.984375 1.328125q-0.375 -0.46875 -0.78125 -0.78125q0.40625 -0.578125 0.40625 -1.40625l0 -4.6875l-0.359375 0q-0.78125 0 -1.40625 0.046875l0 -0.984375q0.625 0.046875 1.40625 0.046875l1.40625 0zm3.6875 -2.703125q-0.09375 0.515625 -0.078125 2.578125q0.03125 2.046875 -0.109375 3.0625q-0.125 1.015625 -0.515625 2.1875q-0.375 1.171875 -1.3125 2.53125q-0.46875 -0.359375 -1.0 -0.515625q1.203125 -1.3125 1.640625 -3.109375q0.453125 -1.796875 0.390625 -4.109375q-0.046875 -2.3125 -0.09375 -2.78125q0.515625 0.109375 1.078125 0.15625zm5.109375 -0.203125q-0.046875 0.40625 -0.046875 1.5l0 6.984375q0 1.03125 0.046875 2.125l-0.984375 0q0.046875 -1.09375 0.046875 -2.078125l0 -7.03125q0 -1.09375 -0.046875 -1.5l0.984375 0zm-2.65625 9.421875l-0.984375 0q0.046875 -1.15625 0.046875 -2.03125l0 -5.109375q0 -0.9375 -0.046875 -1.5625l0.984375 0l0 8.703125zm-7.5 -10.359375q1.359375 1.140625 2.296875 2.1875q-0.46875 0.359375 -0.734375 0.71875q-1.453125 -1.65625 -2.1875 -2.1875q0.3125 -0.3125 0.625 -0.71875zm18.125 2.75q-0.734375 0 -1.875 0.0625l0 -0.9375q1.140625 0.046875 1.921875 0.046875l0.625 0q0.515625 -1.515625 0.578125 -1.984375q0.625 0.3125 1.140625 0.53125q-0.203125 0.203125 -0.390625 0.65625q-0.1875 0.4375 -0.34375 0.796875l1.9375 0q0.828125 0 1.8125 -0.046875l0 0.9375q-0.71875 -0.0625 -1.8125 -0.0625l-2.1875 0q-0.265625 0.625 -0.578125 1.40625l2.03125 0q-0.046875 0.578125 -0.046875 1.40625l0 1.046875l0.671875 0q0.78125 0 1.71875 -0.0625l0 0.9375q-0.9375 -0.046875 -1.71875 -0.046875l-0.671875 0l0 3.015625q0 0.890625 -0.390625 1.140625q-0.390625 0.265625 -1.703125 0.421875q-0.046875 -0.515625 -0.40625 -1.09375q1.296875 0.0625 1.421875 -0.15625q0.140625 -0.203125 0.140625 -0.71875l0 -2.609375l-1.625 0q-0.359375 0 -0.671875 0.03125q-0.3125 0.015625 -0.71875 0.171875q-0.21875 -0.515625 -0.421875 -0.984375q0.515625 -0.15625 1.203125 -1.71875q-0.375 0 -1.40625 0.046875l0 -0.875q1.1875 0.046875 1.65625 0.046875q0.3125 -0.78125 0.515625 -1.40625l-0.40625 0zm-3.4375 1.828125q0.46875 -0.734375 0.9375 -1.984375q0.46875 0.375 0.984375 0.625q-0.515625 0.6875 -1.140625 1.78125q-0.625 1.078125 -1.984375 2.90625q0.46875 -0.109375 2.765625 -0.46875q-0.109375 0.578125 -0.046875 0.890625q-1.15625 0.09375 -3.59375 0.671875q-0.265625 -0.515625 -0.53125 -0.9375q0.46875 -0.265625 1.015625 -0.96875q0.546875 -0.703125 1.171875 -1.734375q-0.3125 -0.0625 -0.90625 0.015625q-0.59375 0.078125 -1.171875 0.234375q-0.203125 -0.46875 -0.421875 -0.984375q0.53125 -0.3125 1.171875 -1.65625q0.65625 -1.359375 1.078125 -2.65625q0.5625 0.359375 1.09375 0.515625q-0.53125 0.78125 -0.96875 1.640625q-0.4375 0.859375 -1.21875 2.15625q1.1875 0 1.765625 -0.046875zm1.609375 4.6875q-0.046875 0.5625 0 0.9375q-0.875 0.203125 -2.0 0.5625q-1.125 0.375 -2.0625 0.84375q-0.15625 -0.578125 -0.359375 -1.15625q1.359375 -0.3125 1.84375 -0.4375q0.5 -0.125 2.578125 -0.75zm2.703125 -0.375q-0.15625 0.15625 -0.90625 1.0q-0.75 0.828125 -1.6875 1.8125q-0.359375 -0.46875 -0.671875 -0.71875q0.5625 -0.46875 1.234375 -1.21875q0.6875 -0.765625 1.203125 -1.59375q0.3125 0.359375 0.828125 0.71875zm3.234375 -0.71875q1.359375 1.765625 1.921875 2.75q-0.515625 0.21875 -0.9375 0.578125q-0.5625 -1.140625 -1.765625 -2.765625q0.359375 -0.203125 0.78125 -0.5625zm-2.234375 -1.5625l0 -1.671875l-1.3125 0q-0.515625 1.09375 -0.828125 1.671875l2.140625 0z" fill-rule="nonzero"/><path fill="#000000" d="m468.5462 356.3q-0.15625 0.453125 -0.5625 0.859375l2.484375 0q0.359375 -0.8125 0.515625 -1.328125l1.015625 0.203125q0.203125 0.203125 -0.15625 0.265625l-0.40625 0.859375l4.0625 0l0 0.8125l-4.21875 0l0 0.65625l3.40625 0l0 0.8125l-3.40625 0l0 0.65625l3.40625 0l0 0.8125l-3.40625 0l0 0.765625l4.578125 0l0 0.8125l-4.578125 0l0 0.765625l4.984375 0l0 0.96875l-3.96875 0q1.625 1.15625 4.171875 1.71875l-0.359375 1.015625q-2.84375 -0.703125 -4.828125 -2.53125l0 3.0l-1.015625 0l0 -2.953125q-1.578125 1.625 -5.03125 2.640625l-0.34375 -0.96875q2.578125 -0.65625 4.359375 -1.921875l-4.0625 0l0 -0.96875l5.078125 0l0 -0.765625l-1.78125 0l-1.765625 0l0 -3.609375q-0.46875 0.515625 -1.125 1.015625l-0.5625 -0.703125q1.9375 -1.578125 2.703125 -3.453125l0.953125 0.296875q0.203125 0.203125 -0.140625 0.265625zm-0.96875 4.609375l0 0.765625l2.6875 0l0 -0.765625l-2.6875 0zm0 -1.46875l0 0.65625l2.6875 0l0 -0.65625l-2.6875 0zm0 -1.46875l0 0.65625l2.6875 0l0 -0.65625l-2.6875 0z" fill-rule="nonzero"/><path fill="#000000" d="m486.23355 366.3l0 -0.875q-0.65625 1.03125 -1.9375 1.03125q-0.8125 0 -1.515625 -0.453125q-0.6875 -0.453125 -1.078125 -1.265625q-0.375 -0.828125 -0.375 -1.890625q0 -1.03125 0.34375 -1.875q0.34375 -0.84375 1.03125 -1.28125q0.703125 -0.453125 1.546875 -0.453125q0.625 0 1.109375 0.265625q0.5 0.25 0.796875 0.671875l0 -3.421875l1.171875 0l0 9.546875l-1.09375 0zm-3.703125 -3.453125q0 1.328125 0.5625 1.984375q0.5625 0.65625 1.328125 0.65625q0.765625 0 1.296875 -0.625q0.53125 -0.625 0.53125 -1.90625q0 -1.421875 -0.546875 -2.078125q-0.546875 -0.671875 -1.34375 -0.671875q-0.78125 0 -1.3125 0.640625q-0.515625 0.625 -0.515625 2.0zm11.146851 2.59375q-0.65625 0.5625 -1.265625 0.796875q-0.59375 0.21875 -1.28125 0.21875q-1.140625 0 -1.75 -0.546875q-0.609375 -0.5625 -0.609375 -1.4375q0 -0.5 0.21875 -0.921875q0.234375 -0.421875 0.609375 -0.671875q0.375 -0.25 0.84375 -0.390625q0.34375 -0.078125 1.046875 -0.171875q1.421875 -0.171875 2.09375 -0.40625q0 -0.234375 0 -0.296875q0 -0.71875 -0.328125 -1.015625q-0.453125 -0.390625 -1.34375 -0.390625q-0.8125 0 -1.21875 0.296875q-0.390625 0.28125 -0.578125 1.015625l-1.140625 -0.15625q0.15625 -0.734375 0.515625 -1.1875q0.359375 -0.453125 1.03125 -0.6875q0.671875 -0.25 1.5625 -0.25q0.890625 0 1.4375 0.203125q0.5625 0.203125 0.8125 0.53125q0.265625 0.3125 0.375 0.796875q0.046875 0.296875 0.046875 1.078125l0 1.5625q0 1.625 0.078125 2.0625q0.078125 0.4375 0.296875 0.828125l-1.21875 0q-0.1875 -0.359375 -0.234375 -0.859375zm-0.09375 -2.609375q-0.640625 0.265625 -1.921875 0.4375q-0.71875 0.109375 -1.015625 0.25q-0.296875 0.125 -0.46875 0.375q-0.15625 0.25 -0.15625 0.546875q0 0.46875 0.34375 0.78125q0.359375 0.3125 1.046875 0.3125q0.671875 0 1.203125 -0.296875q0.53125 -0.296875 0.78125 -0.8125q0.1875 -0.390625 0.1875 -1.171875l0 -0.421875zm5.5531006 2.421875l0.171875 1.03125q-0.5 0.109375 -0.890625 0.109375q-0.640625 0 -1.0 -0.203125q-0.34375 -0.203125 -0.484375 -0.53125q-0.140625 -0.328125 -0.140625 -1.390625l0 -3.96875l-0.859375 0l0 -0.90625l0.859375 0l0 -1.71875l1.171875 -0.703125l0 2.421875l1.171875 0l0 0.90625l-1.171875 0l0 4.046875q0 0.5 0.046875 0.640625q0.0625 0.140625 0.203125 0.234375q0.140625 0.078125 0.40625 0.078125q0.203125 0 0.515625 -0.046875zm5.6560974 0.1875q-0.65625 0.5625 -1.265625 0.796875q-0.59375 0.21875 -1.28125 0.21875q-1.140625 0 -1.75 -0.546875q-0.609375 -0.5625 -0.609375 -1.4375q0 -0.5 0.21875 -0.921875q0.234375 -0.421875 0.609375 -0.671875q0.375 -0.25 0.84375 -0.390625q0.34375 -0.078125 1.046875 -0.171875q1.421875 -0.171875 2.09375 -0.40625q0 -0.234375 0 -0.296875q0 -0.71875 -0.328125 -1.015625q-0.453125 -0.390625 -1.34375 -0.390625q-0.8125 0 -1.21875 0.296875q-0.390625 0.28125 -0.578125 1.015625l-1.140625 -0.15625q0.15625 -0.734375 0.515625 -1.1875q0.359375 -0.453125 1.03125 -0.6875q0.671875 -0.25 1.5625 -0.25q0.890625 0 1.4375 0.203125q0.5625 0.203125 0.8125 0.53125q0.265625 0.3125 0.375 0.796875q0.046875 0.296875 0.046875 1.078125l0 1.5625q0 1.625 0.078125 2.0625q0.078125 0.4375 0.296875 0.828125l-1.21875 0q-0.1875 -0.359375 -0.234375 -0.859375zm-0.09375 -2.609375q-0.640625 0.265625 -1.921875 0.4375q-0.71875 0.109375 -1.015625 0.25q-0.296875 0.125 -0.46875 0.375q-0.15625 0.25 -0.15625 0.546875q0 0.46875 0.34375 0.78125q0.359375 0.3125 1.046875 0.3125q0.671875 0 1.203125 -0.296875q0.53125 -0.296875 0.78125 -0.8125q0.1875 -0.390625 0.1875 -1.171875l0 -0.421875zm2.5218506 1.40625l1.15625 -0.1875q0.109375 0.703125 0.546875 1.078125q0.453125 0.359375 1.25 0.359375q0.8125 0 1.203125 -0.328125q0.390625 -0.328125 0.390625 -0.765625q0 -0.390625 -0.359375 -0.625q-0.234375 -0.15625 -1.1875 -0.390625q-1.296875 -0.328125 -1.796875 -0.5625q-0.484375 -0.25 -0.75 -0.65625q-0.25 -0.421875 -0.25 -0.9375q0 -0.453125 0.203125 -0.84375q0.21875 -0.40625 0.578125 -0.671875q0.28125 -0.1875 0.75 -0.328125q0.46875 -0.140625 1.015625 -0.140625q0.8125 0 1.421875 0.234375q0.609375 0.234375 0.90625 0.640625q0.296875 0.390625 0.40625 1.0625l-1.140625 0.15625q-0.078125 -0.53125 -0.453125 -0.828125q-0.375 -0.3125 -1.0625 -0.3125q-0.8125 0 -1.15625 0.265625q-0.34375 0.265625 -0.34375 0.625q0 0.234375 0.140625 0.421875q0.15625 0.1875 0.453125 0.3125q0.171875 0.0625 1.03125 0.296875q1.25 0.328125 1.734375 0.546875q0.5 0.203125 0.78125 0.609375q0.28125 0.40625 0.28125 1.0q0 0.59375 -0.34375 1.109375q-0.34375 0.515625 -1.0 0.796875q-0.640625 0.28125 -1.453125 0.28125q-1.34375 0 -2.046875 -0.5625q-0.703125 -0.5625 -0.90625 -1.65625zm11.8671875 -0.15625l1.203125 0.140625q-0.28125 1.0625 -1.0625 1.65625q-0.765625 0.578125 -1.96875 0.578125q-1.515625 0 -2.40625 -0.9375q-0.890625 -0.9375 -0.890625 -2.609375q0 -1.75 0.890625 -2.703125q0.90625 -0.96875 2.34375 -0.96875q1.390625 0 2.265625 0.9375q0.875 0.9375 0.875 2.65625q0 0.109375 0 0.3125l-5.15625 0q0.0625 1.140625 0.640625 1.75q0.578125 0.59375 1.4375 0.59375q0.65625 0 1.109375 -0.328125q0.453125 -0.34375 0.71875 -1.078125zm-3.84375 -1.90625l3.859375 0q-0.078125 -0.859375 -0.4375 -1.296875q-0.5625 -0.6875 -1.453125 -0.6875q-0.8125 0 -1.359375 0.546875q-0.546875 0.53125 -0.609375 1.4375zm9.084351 3.078125l0.171875 1.03125q-0.5 0.109375 -0.890625 0.109375q-0.640625 0 -1.0 -0.203125q-0.34375 -0.203125 -0.484375 -0.53125q-0.140625 -0.328125 -0.140625 -1.390625l0 -3.96875l-0.859375 0l0 -0.90625l0.859375 0l0 -1.71875l1.171875 -0.703125l0 2.421875l1.171875 0l0 0.90625l-1.171875 0l0 4.046875q0 0.5 0.046875 0.640625q0.0625 0.140625 0.203125 0.234375q0.140625 0.078125 0.40625 0.078125q0.203125 0 0.515625 -0.046875z" fill-rule="nonzero"/><path fill="#cfe2f3" d="m410.0 478.0l0 0c0 -3.8659973 31.563934 -7.0 70.5 -7.0c38.936096 0 70.5 3.1340027 70.5 7.0l0 28.0c0 3.8659973 -31.563904 7.0 -70.5 7.0c-38.936066 0 -70.5 -3.1340027 -70.5 -7.0z" fill-rule="evenodd"/><path fill="#000000" fill-opacity="0.0" d="m551.0 478.0l0 0c0 3.8659973 -31.563904 7.0 -70.5 7.0c-38.936066 0 -70.5 -3.1340027 -70.5 -7.0" fill-rule="evenodd"/><path fill="#000000" fill-opacity="0.0" d="m410.0 478.0l0 0c0 -3.8659973 31.563934 -7.0 70.5 -7.0c38.936096 0 70.5 3.1340027 70.5 7.0l0 28.0c0 3.8659973 -31.563904 7.0 -70.5 7.0c-38.936066 0 -70.5 -3.1340027 -70.5 -7.0z" fill-rule="evenodd"/><path stroke="#000000" stroke-width="1.0" stroke-linejoin="round" stroke-linecap="butt" d="m551.0 478.0l0 0c0 3.8659973 -31.563904 7.0 -70.5 7.0c-38.936066 0 -70.5 -3.1340027 -70.5 -7.0" fill-rule="evenodd"/><path stroke="#000000" stroke-width="1.0" stroke-linejoin="round" stroke-linecap="butt" d="m410.0 478.0l0 0c0 -3.8659973 31.563934 -7.0 70.5 -7.0c38.936096 0 70.5 3.1340027 70.5 7.0l0 28.0c0 3.8659973 -31.563904 7.0 -70.5 7.0c-38.936066 0 -70.5 -3.1340027 -70.5 -7.0z" fill-rule="evenodd"/><path fill="#000000" d="m452.88953 500.45624q3.203125 -0.609375 3.453125 -2.03125l-3.203125 0l0 -0.8125l3.359375 0l0 -0.8125l-1.125 0l-1.109375 0l0 -4.0625l1.171875 0l0 -0.96875l-1.890625 0l0 -0.8125l1.890625 0l0 -1.265625l0.8125 0q0.40625 0.046875 0.046875 0.296875l0 0.96875l1.515625 0l0 -1.21875l0.8125 0q0.40625 0.046875 0.0625 0.296875l0 0.921875l1.96875 0l0 0.8125l-1.96875 0l0 0.96875l1.21875 0l0 4.0625l-2.390625 0l0 0.8125l3.453125 0l0 0.8125l-3.25 0q0.65625 1.359375 3.453125 1.921875l-0.453125 1.078125q-2.4375 -0.671875 -3.609375 -2.390625q-0.8125 1.78125 -3.765625 2.390625l-0.453125 -0.96875zm-0.8125 -8.328125l1.625 0l0 0.953125l-1.625 0l0 1.328125q0.765625 0.5 1.734375 1.71875l-0.71875 0.921875q-0.453125 -0.71875 -1.015625 -1.53125l0 5.953125l-1.015625 0l0 -5.390625q-0.609375 1.421875 -1.21875 2.1875l-0.765625 -0.8125q1.734375 -2.484375 1.984375 -4.375l-1.671875 0l0 -0.953125l1.671875 0l0 -2.4375l0.96875 0q0.40625 0.046875 0.046875 0.296875l0 2.140625zm3.046875 1.421875l0 0.8125l3.90625 0l0 -0.8125l-3.90625 0zm0 1.625l0 0.8125l3.90625 0l0 -0.8125l-3.90625 0zm2.6875 -3.40625l-1.515625 0l0 0.96875l1.515625 0l0 -0.96875zm10.765625 4.71875q0.40625 0.046875 0.0625 0.3125l0 0.75l3.65625 0l0 0.96875l-3.65625 0l0 1.578125l5.015625 0l0 0.96875l-10.90625 0l0 -0.96875l4.875 0l0 -1.578125l-3.5625 0l0 -0.96875l3.5625 0l0 -1.0625l0.953125 0zm-4.0 -2.796875l-1.9375 0l0 -0.8125l1.9375 0l0 -1.828125l-1.484375 0l0 -0.8125l5.796875 0l0 0.8125l-1.328125 0l0 1.828125l1.6875 0l0 0.8125l-1.6875 0l0 2.703125l-0.859375 0l0 -2.703125l-1.265625 0l0 0.40625q0 2.140625 -2.546875 3.046875l-0.40625 -0.953125q2.09375 -0.609375 2.09375 -2.1875l0 -0.3125zm8.53125 -3.59375q0.40625 0.046875 0.046875 0.296875l0 5.28125q0 0.8125 -0.8125 0.8125l-1.015625 0l-0.15625 -0.96875l0.765625 0q0.203125 0 0.203125 -0.203125l0 -5.21875l0.96875 0zm-6.40625 2.78125l0 -1.828125l-1.265625 0l0 1.828125l1.265625 0zm4.0625 -1.921875q0.40625 0.046875 0.046875 0.296875l0 3.765625l-1.015625 0l0 -4.0625l0.96875 0z" fill-rule="nonzero"/><path fill="#000000" d="m483.68628 500.3l0 -0.875q-0.65625 1.03125 -1.9375 1.03125q-0.8125 0 -1.515625 -0.453125q-0.6875 -0.453125 -1.078125 -1.265625q-0.375 -0.828125 -0.375 -1.890625q0 -1.03125 0.34375 -1.875q0.34375 -0.84375 1.03125 -1.28125q0.703125 -0.453125 1.546875 -0.453125q0.625 0 1.109375 0.265625q0.5 0.25 0.796875 0.671875l0 -3.421875l1.171875 0l0 9.546875l-1.09375 0zm-3.703125 -3.453125q0 1.328125 0.5625 1.984375q0.5625 0.65625 1.328125 0.65625q0.765625 0 1.296875 -0.625q0.53125 -0.625 0.53125 -1.90625q0 -1.421875 -0.546875 -2.078125q-0.546875 -0.671875 -1.34375 -0.671875q-0.78125 0 -1.3125 0.640625q-0.515625 0.625 -0.515625 2.0zm11.146851 2.59375q-0.65625 0.5625 -1.265625 0.796875q-0.59375 0.21875 -1.28125 0.21875q-1.140625 0 -1.75 -0.546875q-0.609375 -0.5625 -0.609375 -1.4375q0 -0.5 0.21875 -0.921875q0.234375 -0.421875 0.609375 -0.671875q0.375 -0.25 0.84375 -0.390625q0.34375 -0.078125 1.046875 -0.171875q1.421875 -0.171875 2.09375 -0.40625q0 -0.234375 0 -0.296875q0 -0.71875 -0.328125 -1.015625q-0.453125 -0.390625 -1.34375 -0.390625q-0.8125 0 -1.21875 0.296875q-0.390625 0.28125 -0.578125 1.015625l-1.140625 -0.15625q0.15625 -0.734375 0.515625 -1.1875q0.359375 -0.453125 1.03125 -0.6875q0.671875 -0.25 1.5625 -0.25q0.890625 0 1.4375 0.203125q0.5625 0.203125 0.8125 0.53125q0.265625 0.3125 0.375 0.796875q0.046875 0.296875 0.046875 1.078125l0 1.5625q0 1.625 0.078125 2.0625q0.078125 0.4375 0.296875 0.828125l-1.21875 0q-0.1875 -0.359375 -0.234375 -0.859375zm-0.09375 -2.609375q-0.640625 0.265625 -1.921875 0.4375q-0.71875 0.109375 -1.015625 0.25q-0.296875 0.125 -0.46875 0.375q-0.15625 0.25 -0.15625 0.546875q0 0.46875 0.34375 0.78125q0.359375 0.3125 1.046875 0.3125q0.671875 0 1.203125 -0.296875q0.53125 -0.296875 0.78125 -0.8125q0.1875 -0.390625 0.1875 -1.171875l0 -0.421875zm5.5531006 2.421875l0.171875 1.03125q-0.5 0.109375 -0.890625 0.109375q-0.640625 0 -1.0 -0.203125q-0.34375 -0.203125 -0.484375 -0.53125q-0.140625 -0.328125 -0.140625 -1.390625l0 -3.96875l-0.859375 0l0 -0.90625l0.859375 0l0 -1.71875l1.171875 -0.703125l0 2.421875l1.171875 0l0 0.90625l-1.171875 0l0 4.046875q0 0.5 0.046875 0.640625q0.0625 0.140625 0.203125 0.234375q0.140625 0.078125 0.40625 0.078125q0.203125 0 0.515625 -0.046875zm5.6560974 0.1875q-0.65625 0.5625 -1.265625 0.796875q-0.59375 0.21875 -1.28125 0.21875q-1.140625 0 -1.75 -0.546875q-0.609375 -0.5625 -0.609375 -1.4375q0 -0.5 0.21875 -0.921875q0.234375 -0.421875 0.609375 -0.671875q0.375 -0.25 0.84375 -0.390625q0.34375 -0.078125 1.046875 -0.171875q1.421875 -0.171875 2.09375 -0.40625q0 -0.234375 0 -0.296875q0 -0.71875 -0.328125 -1.015625q-0.453125 -0.390625 -1.34375 -0.390625q-0.8125 0 -1.21875 0.296875q-0.390625 0.28125 -0.578125 1.015625l-1.140625 -0.15625q0.15625 -0.734375 0.515625 -1.1875q0.359375 -0.453125 1.03125 -0.6875q0.671875 -0.25 1.5625 -0.25q0.890625 0 1.4375 0.203125q0.5625 0.203125 0.8125 0.53125q0.265625 0.3125 0.375 0.796875q0.046875 0.296875 0.046875 1.078125l0 1.5625q0 1.625 0.078125 2.0625q0.078125 0.4375 0.296875 0.828125l-1.21875 0q-0.1875 -0.359375 -0.234375 -0.859375zm-0.09375 -2.609375q-0.640625 0.265625 -1.921875 0.4375q-0.71875 0.109375 -1.015625 0.25q-0.296875 0.125 -0.46875 0.375q-0.15625 0.25 -0.15625 0.546875q0 0.46875 0.34375 0.78125q0.359375 0.3125 1.046875 0.3125q0.671875 0 1.203125 -0.296875q0.53125 -0.296875 0.78125 -0.8125q0.1875 -0.390625 0.1875 -1.171875l0 -0.421875zm2.5218506 1.40625l1.15625 -0.1875q0.109375 0.703125 0.546875 1.078125q0.453125 0.359375 1.25 0.359375q0.8125 0 1.203125 -0.328125q0.390625 -0.328125 0.390625 -0.765625q0 -0.390625 -0.359375 -0.625q-0.234375 -0.15625 -1.1875 -0.390625q-1.296875 -0.328125 -1.796875 -0.5625q-0.484375 -0.25 -0.75 -0.65625q-0.25 -0.421875 -0.25 -0.9375q0 -0.453125 0.203125 -0.84375q0.21875 -0.40625 0.578125 -0.671875q0.28125 -0.1875 0.75 -0.328125q0.46875 -0.140625 1.015625 -0.140625q0.8125 0 1.421875 0.234375q0.609375 0.234375 0.90625 0.640625q0.296875 0.390625 0.40625 1.0625l-1.140625 0.15625q-0.078125 -0.53125 -0.453125 -0.828125q-0.375 -0.3125 -1.0625 -0.3125q-0.8125 0 -1.15625 0.265625q-0.34375 0.265625 -0.34375 0.625q0 0.234375 0.140625 0.421875q0.15625 0.1875 0.453125 0.3125q0.171875 0.0625 1.03125 0.296875q1.25 0.328125 1.734375 0.546875q0.5 0.203125 0.78125 0.609375q0.28125 0.40625 0.28125 1.0q0 0.59375 -0.34375 1.109375q-0.34375 0.515625 -1.0 0.796875q-0.640625 0.28125 -1.453125 0.28125q-1.34375 0 -2.046875 -0.5625q-0.703125 -0.5625 -0.90625 -1.65625zm11.867218 -0.15625l1.203125 0.140625q-0.28125 1.0625 -1.0625 1.65625q-0.765625 0.578125 -1.96875 0.578125q-1.515625 0 -2.40625 -0.9375q-0.8906555 -0.9375 -0.8906555 -2.609375q0 -1.75 0.8906555 -2.703125q0.90625 -0.96875 2.34375 -0.96875q1.390625 0 2.265625 0.9375q0.875 0.9375 0.875 2.65625q0 0.109375 0 0.3125l-5.15625 0q0.0625 1.140625 0.640625 1.75q0.578125 0.59375 1.4375 0.59375q0.65625 0 1.109375 -0.328125q0.453125 -0.34375 0.71875 -1.078125zm-3.84375 -1.90625l3.859375 0q-0.078125 -0.859375 -0.4375 -1.296875q-0.5625 -0.6875 -1.453125 -0.6875q-0.8125 0 -1.359375 0.546875q-0.546875 0.53125 -0.609375 1.4375zm9.084351 3.078125l0.171875 1.03125q-0.5 0.109375 -0.890625 0.109375q-0.640625 0 -1.0 -0.203125q-0.34375 -0.203125 -0.484375 -0.53125q-0.140625 -0.328125 -0.140625 -1.390625l0 -3.96875l-0.859375 0l0 -0.90625l0.859375 0l0 -1.71875l1.171875 -0.703125l0 2.421875l1.171875 0l0 0.90625l-1.171875 0l0 4.046875q0 0.5 0.046875 0.640625q0.0625 0.140625 0.203125 0.234375q0.140625 0.078125 0.40625 0.078125q0.203125 0 0.515625 -0.046875z" fill-rule="nonzero"/><path fill="#cfe2f3" d="m563.0 334.00787l20.0 -21.508453l0 10.0l0 0c29.308105 -4.493469 51.83539 -18.424377 58.207336 -35.995483l0 0c9.035095 24.914825 -16.650146 49.624023 -58.207336 55.995483l0 10.0z" fill-rule="evenodd"/><path fill="#a5b4c2" d="m643.0 296.50394c0 -26.235687 -35.8172 -47.503937 -80.0 -47.503937l0 -20.0l0 0c44.1828 0 80.0 21.268234 80.0 47.503937z" fill-rule="evenodd"/><path fill="#000000" fill-opacity="0.0" d="m643.0 296.50394c0 -26.235687 -35.8172 -47.503937 -80.0 -47.503937l0 -20.0l0 0c44.1828 0 80.0 21.268234 80.0 47.503937l0 20.0c0 21.661713 -24.678528 40.580048 -60.0 45.995483l0 10.0l-20.0 -18.491547l20.0 -21.508453l0 10.0l0 0c29.308105 -4.493469 51.83539 -18.424377 58.207336 -35.995483" fill-rule="evenodd"/><path stroke="#000000" stroke-width="1.0" stroke-linejoin="round" stroke-linecap="butt" d="m643.0 296.50394c0 -26.235687 -35.8172 -47.503937 -80.0 -47.503937l0 -20.0l0 0c44.1828 0 80.0 21.268234 80.0 47.503937l0 20.0c0 21.661713 -24.678528 40.580048 -60.0 45.995483l0 10.0l-20.0 -18.491547l20.0 -21.508453l0 10.0l0 0c29.308105 -4.493469 51.83539 -18.424377 58.207336 -35.995483" fill-rule="evenodd"/><path fill="#000000" d="m581.4531 293.50708q0.703125 -1.375 0.859375 -4.15625l-1.734375 0q0.15625 2.78125 0.875 4.15625zm1.875 -4.15625q-0.109375 3.140625 -1.21875 5.078125q0.8125 1.015625 2.28125 1.765625l-0.65625 1.125q-1.625 -1.0625 -2.28125 -2.03125q-1.171875 1.328125 -3.609375 2.28125l-0.515625 -1.015625q2.640625 -1.0625 3.515625 -2.1875q-0.875 -1.671875 -0.96875 -3.34375q-0.3125 0.765625 -0.609375 1.171875l-0.859375 -0.671875q1.515625 -2.234375 1.828125 -5.53125l1.0625 0.25q0.296875 0.203125 -0.15625 0.3125q-0.15625 0.90625 -0.40625 1.828125l3.453125 0l0 0.96875l-0.859375 0zm-4.71875 -2.4375q-0.3125 0.75 -0.71875 1.265625l-0.8125 -0.453125q0.40625 -0.671875 0.765625 -1.53125l0.90625 0.453125q0.203125 0.203125 -0.140625 0.265625zm-3.25 7.15625q0.703125 0.203125 1.265625 0.453125q0.40625 -0.453125 0.65625 -1.375l-1.46875 0q-0.203125 0.46875 -0.453125 0.921875zm-0.71875 1.265625l-0.8125 -0.453125q0.515625 -0.765625 1.015625 -1.734375l-1.921875 0l0 -0.8125l2.234375 0q0.296875 -0.65625 0.453125 -1.109375l0.96875 0.25q0.203125 0.203125 -0.15625 0.25l-0.3125 0.609375l2.90625 0l0 0.8125l-0.765625 0q-0.25 1.015625 -0.765625 1.734375q0.453125 0.203125 0.96875 0.5l-0.453125 0.8125q-0.5625 -0.34375 -1.015625 -0.546875q-1.328125 1.3125 -3.5625 1.625l-0.359375 -0.921875q1.984375 -0.203125 3.046875 -1.109375q-0.546875 -0.265625 -1.109375 -0.46875l-0.359375 0.5625zm1.015625 -9.546875l0.8125 0q0.40625 0.046875 0.046875 0.3125l0 2.171875l2.59375 0l0 0.8125l-2.125 0q0.546875 0.671875 1.71875 1.28125l-0.5625 0.859375q-0.859375 -0.515625 -1.625 -1.421875l0 1.21875l-0.859375 0l0 -0.96875q-0.8125 1.015625 -2.234375 1.828125l-0.65625 -0.8125q1.578125 -0.8125 2.59375 -1.984375l-2.34375 0l0 -0.8125l2.640625 0l0 -2.484375zm-1.421875 2.34375q-0.359375 -0.765625 -0.90625 -1.328125l0.8125 -0.5q0.609375 0.609375 0.90625 1.265625l-0.8125 0.5625zm15.84375 -2.03125l6.65625 0l0 3.1875l-2.28125 0l0 1.484375l2.84375 0l0 0.8125l-2.84375 0l0 1.515625l1.96875 0l0 4.21875l-0.859375 0l0 -0.5625l-3.046875 0l0 0.71875l-0.859375 0l0 -4.375l1.78125 0l0 -1.515625l-2.5 0l0 0.8125q0 3.390625 -1.46875 4.921875l-0.765625 -0.765625q1.375 -1.375 1.375 -4.359375l0 -6.09375zm5.484375 7.8125l-3.046875 0l0 2.03125l3.046875 0l0 -2.03125zm-2.125 -3.140625l0 -1.484375l-2.5 0l0 1.484375l2.5 0zm-2.5 -2.296875l4.78125 0l0 -1.5625l-4.78125 0l0 1.5625zm-1.3125 3.8125l-1.328125 0.453125l0 3.96875q0 0.8125 -0.8125 0.8125l-1.015625 0l-0.140625 -0.96875l0.75 0q0.203125 0 0.203125 -0.203125l0 -3.296875l-1.0625 0.359375q-0.046875 0.34375 -0.25 0.140625l-0.359375 -1.21875l1.671875 -0.34375l0 -2.640625l-1.421875 0l0 -0.96875l1.421875 0l0 -2.640625l0.96875 0q0.40625 0.046875 0.046875 0.296875l0 2.34375l1.328125 0l0 0.96875l-1.328125 0l0 2.4375l1.21875 -0.359375l0.109375 0.859375zm8.984375 4.0625q0.859375 -1.015625 2.28125 -3.65625l0.875 0.5625q-1.078125 2.125 -1.9375 3.65625q0.109375 0.3125 -0.15625 0.25l-1.0625 -0.8125zm9.1875 0.0625q0.203125 0 0.203125 -0.21875l0 -1.109375l-4.0625 0l0 2.28125l-1.015625 0l0 -6.09375l6.09375 0l0 5.390625q0 0.703125 -0.703125 0.703125l-1.015625 0l-0.203125 -0.953125l0.703125 0zm-5.53125 -9.609375l3.15625 0l0 -1.0625l0.953125 0q0.40625 0.046875 0.0625 0.296875l0 0.765625l3.1875 0l0 0.8125l-3.1875 0l0 0.71875l2.84375 0l0 0.8125l-2.84375 0l0 0.65625l3.796875 0l0 0.8125l-8.625 0l0 -0.8125l3.8125 0l0 -0.65625l-2.796875 0l0 -0.8125l2.796875 0l0 -0.71875l-3.15625 0l0 -0.8125zm5.734375 6.75l-4.0625 0l0 0.71875l4.0625 0l0 -0.71875zm0 -1.46875l-4.0625 0l0 0.65625l4.0625 0l0 -0.65625zm-7.921875 -5.6875q0.8125 0.515625 1.53125 1.328125l-0.765625 0.8125q-0.8125 -0.8125 -1.515625 -1.328125l0.75 -0.8125zm-0.5 2.890625q0.90625 0.5625 1.515625 1.21875l-0.703125 0.875q-0.71875 -0.71875 -1.53125 -1.328125l0.71875 -0.765625zm15.125 3.921875q-0.65625 1.5625 -1.875 3.65625q0.046875 0.40625 -0.203125 0.296875l-0.96875 -0.859375q0.671875 -0.65625 2.1875 -3.703125l0.859375 0.609375zm4.53125 -1.21875l-1.125 0q0 4.421875 -3.609375 5.375l-0.40625 -1.015625q3.0 -0.859375 3.0 -4.359375l-2.53125 0l0 -0.96875l3.796875 0l0 -1.9375l-1.5625 0q-0.5625 1.171875 -1.078125 1.578125l-0.8125 -0.65625q1.171875 -1.21875 1.578125 -3.359375l0.96875 0.203125q0.40625 0.0625 0 0.3125l-0.3125 0.96875l1.21875 0l0 -2.34375l0.96875 0q0.40625 0.046875 0.046875 0.3125l0 2.03125l2.84375 0l0 0.953125l-2.84375 0l0 1.9375l3.8125 0l0 0.96875l-2.9375 0l0 3.703125q0 0.40625 0.34375 0.40625l1.078125 0q0.546875 0 0.609375 -1.375l1.0625 0.25q-0.109375 2.09375 -1.421875 2.09375l-1.875 0q-0.8125 0 -0.8125 -0.875l0 -4.203125zm-6.046875 -5.6875q1.015625 0.609375 1.984375 1.515625l-0.765625 0.96875q-1.125 -0.96875 -1.875 -1.53125l0.65625 -0.953125zm-0.765625 3.09375q1.125 0.609375 1.984375 1.3125l-0.71875 1.015625q-0.90625 -0.703125 -1.921875 -1.359375l0.65625 -0.96875z" fill-rule="nonzero"/><path fill="#cfe2f3" d="m563.0 482.99213l20.0 -21.65097l0 10.0l0 0c29.826355 -5.0049744 52.581482 -20.695038 58.506348 -40.341156l0 0c8.144714 27.00711 -17.5047 53.460938 -58.506348 60.341156l0 10.0z" fill-rule="evenodd"/><path fill="#a5b4c2" d="m643.0 441.0l0 0c0 -28.714447 -35.8172 -51.992126 -80.0 -51.992126l0 -20.0l0 0c44.1828 0 80.0 23.27768 80.0 51.992126z" fill-rule="evenodd"/><path fill="#000000" fill-opacity="0.0" d="m643.0 441.0l0 0c0 -28.714447 -35.8172 -51.992126 -80.0 -51.992126l0 -20.0l0 0c44.1828 0 80.0 23.27768 80.0 51.992126l0 20.0l0 0c0 23.708313 -24.678528 44.414093 -60.0 50.341156l0 10.0l-20.0 -18.34903l20.0 -21.65097l0 10.0l0 0c29.826355 -5.0049744 52.581482 -20.695038 58.506348 -40.341156" fill-rule="evenodd"/><path stroke="#000000" stroke-width="1.0" stroke-linejoin="round" stroke-linecap="butt" d="m643.0 441.0l0 0c0 -28.714447 -35.8172 -51.992126 -80.0 -51.992126l0 -20.0l0 0c44.1828 0 80.0 23.27768 80.0 51.992126l0 20.0l0 0c0 23.708313 -24.678528 44.414093 -60.0 50.341156l0 10.0l-20.0 -18.34903l20.0 -21.65097l0 10.0l0 0c29.826355 -5.0049744 52.581482 -20.695038 58.506348 -40.341156" fill-rule="evenodd"/><path fill="#000000" d="m576.2656 440.95627q3.203125 -0.609375 3.453125 -2.03125l-3.203125 0l0 -0.8125l3.359375 0l0 -0.8125l-1.125 0l-1.109375 0l0 -4.0625l1.171875 0l0 -0.96875l-1.890625 0l0 -0.8125l1.890625 0l0 -1.265625l0.8125 0q0.40625 0.046875 0.046875 0.296875l0 0.96875l1.515625 0l0 -1.21875l0.8125 0q0.40625 0.046875 0.0625 0.296875l0 0.921875l1.96875 0l0 0.8125l-1.96875 0l0 0.96875l1.21875 0l0 4.0625l-2.390625 0l0 0.8125l3.453125 0l0 0.8125l-3.25 0q0.65625 1.359375 3.453125 1.921875l-0.453125 1.078125q-2.4375 -0.671875 -3.609375 -2.390625q-0.8125 1.78125 -3.765625 2.390625l-0.453125 -0.96875zm-0.8125 -8.328125l1.625 0l0 0.953125l-1.625 0l0 1.328125q0.765625 0.5 1.734375 1.71875l-0.71875 0.921875q-0.453125 -0.71875 -1.015625 -1.53125l0 5.953125l-1.015625 0l0 -5.390625q-0.609375 1.421875 -1.21875 2.1875l-0.765625 -0.8125q1.734375 -2.484375 1.984375 -4.375l-1.671875 0l0 -0.953125l1.671875 0l0 -2.4375l0.96875 0q0.40625 0.046875 0.046875 0.296875l0 2.140625zm3.046875 1.421875l0 0.8125l3.90625 0l0 -0.8125l-3.90625 0zm0 1.625l0 0.8125l3.90625 0l0 -0.8125l-3.90625 0zm2.6875 -3.40625l-1.515625 0l0 0.96875l1.515625 0l0 -0.96875zm10.765625 4.71875q0.40625 0.046875 0.0625 0.3125l0 0.75l3.65625 0l0 0.96875l-3.65625 0l0 1.578125l5.015625 0l0 0.96875l-10.90625 0l0 -0.96875l4.875 0l0 -1.578125l-3.5625 0l0 -0.96875l3.5625 0l0 -1.0625l0.953125 0zm-4.0 -2.796875l-1.9375 0l0 -0.8125l1.9375 0l0 -1.828125l-1.484375 0l0 -0.8125l5.796875 0l0 0.8125l-1.328125 0l0 1.828125l1.6875 0l0 0.8125l-1.6875 0l0 2.703125l-0.859375 0l0 -2.703125l-1.265625 0l0 0.40625q0 2.140625 -2.546875 3.046875l-0.40625 -0.953125q2.09375 -0.609375 2.09375 -2.1875l0 -0.3125zm8.53125 -3.59375q0.40625 0.046875 0.046875 0.296875l0 5.28125q0 0.8125 -0.8125 0.8125l-1.015625 0l-0.15625 -0.96875l0.765625 0q0.203125 0 0.203125 -0.203125l0 -5.21875l0.96875 0zm-6.40625 2.78125l0 -1.828125l-1.265625 0l0 1.828125l1.265625 0zm4.0625 -1.921875q0.40625 0.046875 0.046875 0.296875l0 3.765625l-1.015625 0l0 -4.0625l0.96875 0z" fill-rule="nonzero"/><path fill="#000000" d="m601.4375 433.92502q-0.046875 1.203125 -0.046875 2.234375l0 3.234375q0.671875 -0.9375 0.875 -1.25q0.265625 0.3125 0.625 0.78125q-0.671875 0.828125 -1.140625 1.4375q-0.46875 0.59375 -0.984375 1.328125q-0.375 -0.46875 -0.78125 -0.78125q0.40625 -0.578125 0.40625 -1.40625l0 -4.6875l-0.359375 0q-0.78125 0 -1.40625 0.046875l0 -0.984375q0.625 0.046875 1.40625 0.046875l1.40625 0zm3.6875 -2.703125q-0.09375 0.515625 -0.078125 2.578125q0.03125 2.046875 -0.109375 3.0625q-0.125 1.015625 -0.515625 2.1875q-0.375 1.171875 -1.3125 2.53125q-0.46875 -0.359375 -1.0 -0.515625q1.203125 -1.3125 1.640625 -3.109375q0.453125 -1.796875 0.390625 -4.109375q-0.046875 -2.3125 -0.09375 -2.78125q0.515625 0.109375 1.078125 0.15625zm5.109375 -0.203125q-0.046875 0.40625 -0.046875 1.5l0 6.984375q0 1.03125 0.046875 2.125l-0.984375 0q0.046875 -1.09375 0.046875 -2.078125l0 -7.03125q0 -1.09375 -0.046875 -1.5l0.984375 0zm-2.65625 9.421875l-0.984375 0q0.046875 -1.15625 0.046875 -2.03125l0 -5.109375q0 -0.9375 -0.046875 -1.5625l0.984375 0l0 8.703125zm-7.5 -10.359375q1.359375 1.140625 2.296875 2.1875q-0.46875 0.359375 -0.734375 0.71875q-1.453125 -1.65625 -2.1875 -2.1875q0.3125 -0.3125 0.625 -0.71875zm18.125 2.75q-0.734375 0 -1.875 0.0625l0 -0.9375q1.140625 0.046875 1.921875 0.046875l0.625 0q0.515625 -1.515625 0.578125 -1.984375q0.625 0.3125 1.140625 0.53125q-0.203125 0.203125 -0.390625 0.65625q-0.1875 0.4375 -0.34375 0.796875l1.9375 0q0.828125 0 1.8125 -0.046875l0 0.9375q-0.71875 -0.0625 -1.8125 -0.0625l-2.1875 0q-0.265625 0.625 -0.578125 1.40625l2.03125 0q-0.046875 0.578125 -0.046875 1.40625l0 1.046875l0.671875 0q0.78125 0 1.71875 -0.0625l0 0.9375q-0.9375 -0.046875 -1.71875 -0.046875l-0.671875 0l0 3.015625q0 0.890625 -0.390625 1.140625q-0.390625 0.265625 -1.703125 0.421875q-0.046875 -0.515625 -0.40625 -1.09375q1.296875 0.0625 1.421875 -0.15625q0.140625 -0.203125 0.140625 -0.71875l0 -2.609375l-1.625 0q-0.359375 0 -0.671875 0.03125q-0.3125 0.015625 -0.71875 0.171875q-0.21875 -0.515625 -0.421875 -0.984375q0.515625 -0.15625 1.203125 -1.71875q-0.375 0 -1.40625 0.046875l0 -0.875q1.1875 0.046875 1.65625 0.046875q0.3125 -0.78125 0.515625 -1.40625l-0.40625 0zm-3.4375 1.828125q0.46875 -0.734375 0.9375 -1.984375q0.46875 0.375 0.984375 0.625q-0.515625 0.6875 -1.140625 1.78125q-0.625 1.078125 -1.984375 2.90625q0.46875 -0.109375 2.765625 -0.46875q-0.109375 0.578125 -0.046875 0.890625q-1.15625 0.09375 -3.59375 0.671875q-0.265625 -0.515625 -0.53125 -0.9375q0.46875 -0.265625 1.015625 -0.96875q0.546875 -0.703125 1.171875 -1.734375q-0.3125 -0.0625 -0.90625 0.015625q-0.59375 0.078125 -1.171875 0.234375q-0.203125 -0.46875 -0.421875 -0.984375q0.53125 -0.3125 1.171875 -1.65625q0.65625 -1.359375 1.078125 -2.65625q0.5625 0.359375 1.09375 0.515625q-0.53125 0.78125 -0.96875 1.640625q-0.4375 0.859375 -1.21875 2.15625q1.1875 0 1.765625 -0.046875zm1.609375 4.6875q-0.046875 0.5625 0 0.9375q-0.875 0.203125 -2.0 0.5625q-1.125 0.375 -2.0625 0.84375q-0.15625 -0.578125 -0.359375 -1.15625q1.359375 -0.3125 1.84375 -0.4375q0.5 -0.125 2.578125 -0.75zm2.703125 -0.375q-0.15625 0.15625 -0.90625 1.0q-0.75 0.828125 -1.6875 1.8125q-0.359375 -0.46875 -0.671875 -0.71875q0.5625 -0.46875 1.234375 -1.21875q0.6875 -0.765625 1.203125 -1.59375q0.3125 0.359375 0.828125 0.71875zm3.234375 -0.71875q1.359375 1.765625 1.921875 2.75q-0.515625 0.21875 -0.9375 0.578125q-0.5625 -1.140625 -1.765625 -2.765625q0.359375 -0.203125 0.78125 -0.5625zm-2.234375 -1.5625l0 -1.671875l-1.3125 0q-0.515625 1.09375 -0.828125 1.671875l2.140625 0z" fill-rule="nonzero"/><path fill="#93c47d" d="m802.49603 160.49606l0 0c0 6.627411 21.490356 12.0 48.0 12.0c26.509705 0 48.0 -5.372589 48.0 -12.0l0 101.00787c0 6.627411 -21.490295 12.0 -48.0 12.0c-26.509644 0 -48.0 -5.372589 -48.0 -12.0z" fill-rule="evenodd"/><path fill="#bedbb1" d="m802.49603 160.49606l0 0c0 -6.627411 21.490356 -12.0 48.0 -12.0c26.509705 0 48.0 5.372589 48.0 12.0l0 0c0 6.627411 -21.490295 12.0 -48.0 12.0c-26.509644 0 -48.0 -5.372589 -48.0 -12.0z" fill-rule="evenodd"/><path fill="#000000" fill-opacity="0.0" d="m898.49603 160.49606l0 0c0 6.627411 -21.490295 12.0 -48.0 12.0c-26.509644 0 -48.0 -5.372589 -48.0 -12.0l0 0c0 -6.627411 21.490356 -12.0 48.0 -12.0c26.509705 0 48.0 5.372589 48.0 12.0l0 101.00787c0 6.627411 -21.490295 12.0 -48.0 12.0c-26.509644 0 -48.0 -5.372589 -48.0 -12.0l0 -101.00787" fill-rule="evenodd"/><path stroke="#000000" stroke-width="1.0" stroke-linejoin="round" stroke-linecap="butt" d="m898.49603 160.49606l0 0c0 6.627411 -21.490295 12.0 -48.0 12.0c-26.509644 0 -48.0 -5.372589 -48.0 -12.0l0 0c0 -6.627411 21.490356 -12.0 48.0 -12.0c26.509705 0 48.0 5.372589 48.0 12.0l0 101.00787c0 6.627411 -21.490295 12.0 -48.0 12.0c-26.509644 0 -48.0 -5.372589 -48.0 -12.0l0 -101.00787" fill-rule="evenodd"/><path fill="#000000" d="m828.28033 212.92l0 -13.359375l1.640625 0l0 4.796875q1.140625 -1.328125 2.890625 -1.328125q1.078125 0 1.859375 0.421875q0.796875 0.421875 1.140625 1.171875q0.34375 0.75 0.34375 2.171875l0 6.125l-1.640625 0l0 -6.125q0 -1.234375 -0.53125 -1.796875q-0.53125 -0.5625 -1.515625 -0.5625q-0.71875 0 -1.359375 0.390625q-0.640625 0.375 -0.921875 1.015625q-0.265625 0.640625 -0.265625 1.78125l0 5.296875l-1.640625 0zm16.641357 0l0 -1.21875q-0.90625 1.4375 -2.703125 1.4375q-1.15625 0 -2.125 -0.640625q-0.96875 -0.640625 -1.5 -1.78125q-0.53125 -1.140625 -0.53125 -2.625q0 -1.453125 0.484375 -2.625q0.484375 -1.1875 1.4375 -1.8125q0.96875 -0.625 2.171875 -0.625q0.875 0 1.546875 0.375q0.6875 0.359375 1.109375 0.953125l0 -4.796875l1.640625 0l0 13.359375l-1.53125 0zm-5.171875 -4.828125q0 1.859375 0.78125 2.78125q0.78125 0.921875 1.84375 0.921875q1.078125 0 1.828125 -0.875q0.75 -0.890625 0.75 -2.6875q0 -1.984375 -0.765625 -2.90625q-0.765625 -0.9375 -1.890625 -0.9375q-1.078125 0 -1.8125 0.890625q-0.734375 0.890625 -0.734375 2.8125zm9.672607 4.828125l0 -8.40625l-1.453125 0l0 -1.265625l1.453125 0l0 -1.03125q0 -0.96875 0.171875 -1.453125q0.234375 -0.640625 0.828125 -1.03125q0.59375 -0.390625 1.671875 -0.390625q0.6875 0 1.53125 0.15625l-0.25 1.4375q-0.5 -0.09375 -0.953125 -0.09375q-0.75 0 -1.0625 0.328125q-0.3125 0.3125 -0.3125 1.1875l0 0.890625l1.890625 0l0 1.265625l-1.890625 0l0 8.40625l-1.625 0zm4.1364136 -2.890625l1.625 -0.25q0.125 0.96875 0.75 1.5q0.625 0.515625 1.75 0.515625q1.125 0 1.671875 -0.453125q0.546875 -0.46875 0.546875 -1.09375q0 -0.546875 -0.484375 -0.875q-0.328125 -0.21875 -1.671875 -0.546875q-1.8125 -0.46875 -2.515625 -0.796875q-0.6875 -0.328125 -1.046875 -0.90625q-0.359375 -0.59375 -0.359375 -1.3125q0 -0.640625 0.296875 -1.1875q0.296875 -0.5625 0.8125 -0.921875q0.375 -0.28125 1.03125 -0.46875q0.671875 -0.203125 1.421875 -0.203125q1.140625 0 2.0 0.328125q0.859375 0.328125 1.265625 0.890625q0.421875 0.5625 0.578125 1.5l-1.609375 0.21875q-0.109375 -0.75 -0.640625 -1.171875q-0.515625 -0.421875 -1.46875 -0.421875q-1.140625 0 -1.625 0.375q-0.46875 0.375 -0.46875 0.875q0 0.3125 0.1875 0.578125q0.203125 0.265625 0.640625 0.4375q0.234375 0.09375 1.4375 0.421875q1.75 0.453125 2.4375 0.75q0.6875 0.296875 1.078125 0.859375q0.390625 0.5625 0.390625 1.40625q0 0.828125 -0.484375 1.546875q-0.46875 0.71875 -1.375 1.125q-0.90625 0.390625 -2.046875 0.390625q-1.875 0 -2.875 -0.78125q-0.984375 -0.78125 -1.25 -2.328125z" fill-rule="nonzero"/><path fill="#000000" d="m867.87134 214.70125q-1.78125 -2.0 -3.703125 -3.265625l1.109375 -1.484375q2.375 1.40625 3.9375 3.1875l-1.34375 1.5625z" fill-rule="nonzero"/><path fill="#000000" d="m812.4179 235.71687l1.59375 0.234375q0.109375 0.75 0.5625 1.078125q0.609375 0.453125 1.671875 0.453125q1.140625 0 1.75 -0.453125q0.625 -0.453125 0.84375 -1.265625q0.125 -0.5 0.109375 -2.109375q-1.0625 1.265625 -2.671875 1.265625q-2.0 0 -3.09375 -1.4375q-1.09375 -1.4375 -1.09375 -3.453125q0 -1.390625 0.5 -2.5625q0.515625 -1.171875 1.453125 -1.796875q0.953125 -0.640625 2.25 -0.640625q1.703125 0 2.8125 1.375l0 -1.15625l1.515625 0l0 8.359375q0 2.265625 -0.46875 3.203125q-0.453125 0.9375 -1.453125 1.484375q-0.984375 0.546875 -2.453125 0.546875q-1.71875 0 -2.796875 -0.78125q-1.0625 -0.765625 -1.03125 -2.34375zm1.359375 -5.8125q0 1.90625 0.75 2.78125q0.765625 0.875 1.90625 0.875q1.125 0 1.890625 -0.859375q0.765625 -0.875 0.765625 -2.734375q0 -1.78125 -0.796875 -2.671875q-0.78125 -0.90625 -1.890625 -0.90625q-1.09375 0 -1.859375 0.890625q-0.765625 0.875 -0.765625 2.625zm9.281982 5.015625l0 -13.359375l1.640625 0l0 13.359375l-1.640625 0zm10.519836 0l0 -1.421875q-1.125 1.640625 -3.0625 1.640625q-0.859375 0 -1.609375 -0.328125q-0.734375 -0.328125 -1.09375 -0.828125q-0.359375 -0.5 -0.5 -1.21875q-0.109375 -0.46875 -0.109375 -1.53125l0 -5.984375l1.640625 0l0 5.359375q0 1.28125 0.109375 1.734375q0.15625 0.640625 0.65625 1.015625q0.5 0.375 1.234375 0.375q0.734375 0 1.375 -0.375q0.65625 -0.390625 0.921875 -1.03125q0.265625 -0.65625 0.265625 -1.890625l0 -5.1875l1.640625 0l0 9.671875l-1.46875 0zm3.3913574 -2.890625l1.625 -0.25q0.125 0.96875 0.75 1.5q0.625 0.515625 1.75 0.515625q1.125 0 1.671875 -0.453125q0.546875 -0.46875 0.546875 -1.09375q0 -0.546875 -0.484375 -0.875q-0.328125 -0.21875 -1.671875 -0.546875q-1.8125 -0.46875 -2.515625 -0.796875q-0.6875 -0.328125 -1.046875 -0.90625q-0.359375 -0.59375 -0.359375 -1.3125q0 -0.640625 0.296875 -1.1875q0.296875 -0.5625 0.8125 -0.921875q0.375 -0.28125 1.03125 -0.46875q0.671875 -0.203125 1.421875 -0.203125q1.140625 0 2.0 0.328125q0.859375 0.328125 1.265625 0.890625q0.421875 0.5625 0.578125 1.5l-1.609375 0.21875q-0.109375 -0.75 -0.640625 -1.171875q-0.515625 -0.421875 -1.46875 -0.421875q-1.140625 0 -1.625 0.375q-0.46875 0.375 -0.46875 0.875q0 0.3125 0.1875 0.578125q0.203125 0.265625 0.640625 0.4375q0.234375 0.09375 1.4375 0.421875q1.75 0.453125 2.4375 0.75q0.6875 0.296875 1.078125 0.859375q0.390625 0.5625 0.390625 1.40625q0 0.828125 -0.484375 1.546875q-0.46875 0.71875 -1.375 1.125q-0.90625 0.390625 -2.046875 0.390625q-1.875 0 -2.875 -0.78125q-0.984375 -0.78125 -1.25 -2.328125zm13.5625 1.421875l0.234375 1.453125q-0.6875 0.140625 -1.234375 0.140625q-0.890625 0 -1.390625 -0.28125q-0.484375 -0.28125 -0.6875 -0.734375q-0.203125 -0.46875 -0.203125 -1.9375l0 -5.578125l-1.203125 0l0 -1.265625l1.203125 0l0 -2.390625l1.625 -0.984375l0 3.375l1.65625 0l0 1.265625l-1.65625 0l0 5.671875q0 0.6875 0.078125 0.890625q0.09375 0.203125 0.28125 0.328125q0.203125 0.109375 0.578125 0.109375q0.265625 0 0.71875 -0.0625zm8.230164 -1.640625l1.6875 0.203125q-0.40625 1.484375 -1.484375 2.3125q-1.078125 0.8125 -2.765625 0.8125q-2.125 0 -3.375 -1.296875q-1.234375 -1.3125 -1.234375 -3.671875q0 -2.453125 1.25 -3.796875q1.265625 -1.34375 3.265625 -1.34375q1.9375 0 3.15625 1.328125q1.234375 1.3125 1.234375 3.703125q0 0.15625 0 0.4375l-7.21875 0q0.09375 1.59375 0.90625 2.453125q0.8125 0.84375 2.015625 0.84375q0.90625 0 1.546875 -0.46875q0.640625 -0.484375 1.015625 -1.515625zm-5.390625 -2.65625l5.40625 0q-0.109375 -1.21875 -0.625 -1.828125q-0.78125 -0.953125 -2.03125 -0.953125q-1.125 0 -1.90625 0.765625q-0.765625 0.75 -0.84375 2.015625zm9.125732 5.765625l0 -9.671875l1.46875 0l0 1.46875q0.5625 -1.03125 1.03125 -1.359375q0.484375 -0.328125 1.0625 -0.328125q0.828125 0 1.6875 0.53125l-0.5625 1.515625q-0.609375 -0.359375 -1.203125 -0.359375q-0.546875 0 -0.96875 0.328125q-0.421875 0.328125 -0.609375 0.890625q-0.28125 0.875 -0.28125 1.921875l0 5.0625l-1.625 0zm6.6188965 0l0 -8.40625l-1.453125 0l0 -1.265625l1.453125 0l0 -1.03125q0 -0.96875 0.171875 -1.453125q0.234375 -0.640625 0.828125 -1.03125q0.59375 -0.390625 1.671875 -0.390625q0.6875 0 1.53125 0.15625l-0.25 1.4375q-0.5 -0.09375 -0.953125 -0.09375q-0.75 0 -1.0625 0.328125q-0.3125 0.3125 -0.3125 1.1875l0 0.890625l1.890625 0l0 1.265625l-1.890625 0l0 8.40625l-1.625 0zm4.1364136 -2.890625l1.625 -0.25q0.125 0.96875 0.75 1.5q0.625 0.515625 1.75 0.515625q1.125 0 1.671875 -0.453125q0.546875 -0.46875 0.546875 -1.09375q0 -0.546875 -0.484375 -0.875q-0.328125 -0.21875 -1.671875 -0.546875q-1.8125 -0.46875 -2.515625 -0.796875q-0.6875 -0.328125 -1.046875 -0.90625q-0.359375 -0.59375 -0.359375 -1.3125q0 -0.640625 0.296875 -1.1875q0.296875 -0.5625 0.8125 -0.921875q0.375 -0.28125 1.03125 -0.46875q0.671875 -0.203125 1.421875 -0.203125q1.140625 0 2.0 0.328125q0.859375 0.328125 1.265625 0.890625q0.421875 0.5625 0.578125 1.5l-1.609375 0.21875q-0.109375 -0.75 -0.640625 -1.171875q-0.515625 -0.421875 -1.46875 -0.421875q-1.140625 0 -1.625 0.375q-0.46875 0.375 -0.46875 0.875q0 0.3125 0.1875 0.578125q0.203125 0.265625 0.640625 0.4375q0.234375 0.09375 1.4375 0.421875q1.75 0.453125 2.4375 0.75q0.6875 0.296875 1.078125 0.859375q0.390625 0.5625 0.390625 1.40625q0 0.828125 -0.484375 1.546875q-0.46875 0.71875 -1.375 1.125q-0.90625 0.390625 -2.046875 0.390625q-1.875 0 -2.875 -0.78125q-0.984375 -0.78125 -1.25 -2.328125z" fill-rule="nonzero"/><path fill="#000000" fill-opacity="0.0" d="m551.0 214.0l251.49603 -2.9921265" fill-rule="evenodd"/><path stroke="#000000" stroke-width="1.0" stroke-linejoin="round" stroke-linecap="butt" d="m551.0 214.0l245.49646 -2.9207458" fill-rule="evenodd"/><path fill="#000000" stroke="#000000" stroke-width="1.0" stroke-linecap="butt" d="m796.5161 212.73087l4.5181274 -1.7055969l-4.557373 -1.5976257z" fill-rule="evenodd"/><path fill="#000000" fill-opacity="0.0" d="m611.0 169.01575l117.00787 0l0 41.984253l-117.00787 0z" fill-rule="evenodd"/><path fill="#000000" d="m651.678 193.04512l1.625 -0.25q0.125 0.96875 0.75 1.5q0.625 0.515625 1.75 0.515625q1.125 0 1.671875 -0.453125q0.546875 -0.46875 0.546875 -1.09375q0 -0.546875 -0.484375 -0.875q-0.328125 -0.21875 -1.671875 -0.546875q-1.8125 -0.46875 -2.515625 -0.796875q-0.6875 -0.328125 -1.046875 -0.90625q-0.359375 -0.59375 -0.359375 -1.3125q0 -0.640625 0.296875 -1.1875q0.296875 -0.5625 0.8125 -0.921875q0.375 -0.28125 1.03125 -0.46875q0.671875 -0.203125 1.421875 -0.203125q1.140625 0 2.0 0.328125q0.859375 0.328125 1.265625 0.890625q0.421875 0.5625 0.578125 1.5l-1.609375 0.21875q-0.109375 -0.75 -0.640625 -1.171875q-0.515625 -0.421875 -1.46875 -0.421875q-1.140625 0 -1.625 0.375q-0.46875 0.375 -0.46875 0.875q0 0.3125 0.1875 0.578125q0.203125 0.265625 0.640625 0.4375q0.234375 0.09375 1.4375 0.421875q1.75 0.453125 2.4375 0.75q0.6875 0.296875 1.078125 0.859375q0.390625 0.5625 0.390625 1.40625q0 0.828125 -0.484375 1.546875q-0.46875 0.71875 -1.375 1.125q-0.90625 0.390625 -2.046875 0.390625q-1.875 0 -2.875 -0.78125q-0.984375 -0.78125 -1.25 -2.328125zm13.5625 1.421875l0.234375 1.453125q-0.6875 0.140625 -1.234375 0.140625q-0.890625 0 -1.390625 -0.28125q-0.484375 -0.28125 -0.6875 -0.734375q-0.203125 -0.46875 -0.203125 -1.9375l0 -5.578125l-1.203125 0l0 -1.265625l1.203125 0l0 -2.390625l1.625 -0.984375l0 3.375l1.65625 0l0 1.265625l-1.65625 0l0 5.671875q0 0.6875 0.078125 0.890625q0.09375 0.203125 0.28125 0.328125q0.203125 0.109375 0.578125 0.109375q0.265625 0 0.71875 -0.0625zm0.9957886 -3.375q0 -2.6875 1.484375 -3.96875q1.25 -1.078125 3.046875 -1.078125q2.0 0 3.265625 1.3125q1.265625 1.296875 1.265625 3.609375q0 1.859375 -0.5625 2.9375q-0.5625 1.0625 -1.640625 1.65625q-1.0625 0.59375 -2.328125 0.59375q-2.03125 0 -3.28125 -1.296875q-1.25 -1.3125 -1.25 -3.765625zm1.6875 0q0 1.859375 0.796875 2.796875q0.8125 0.921875 2.046875 0.921875q1.21875 0 2.03125 -0.921875q0.8125 -0.9375 0.8125 -2.84375q0 -1.796875 -0.8125 -2.71875q-0.8125 -0.921875 -2.03125 -0.921875q-1.234375 0 -2.046875 0.921875q-0.796875 0.90625 -0.796875 2.765625zm9.281921 4.84375l0 -9.671875l1.46875 0l0 1.46875q0.5625 -1.03125 1.03125 -1.359375q0.484375 -0.328125 1.0625 -0.328125q0.828125 0 1.6875 0.53125l-0.5625 1.515625q-0.609375 -0.359375 -1.203125 -0.359375q-0.546875 0 -0.96875 0.328125q-0.421875 0.328125 -0.609375 0.890625q-0.28125 0.875 -0.28125 1.921875l0 5.0625l-1.625 0zm12.8533325 -3.109375l1.6875 0.203125q-0.40625 1.484375 -1.484375 2.3125q-1.078125 0.8125 -2.765625 0.8125q-2.125 0 -3.375 -1.296875q-1.234375 -1.3125 -1.234375 -3.671875q0 -2.453125 1.25 -3.796875q1.265625 -1.34375 3.265625 -1.34375q1.9375 0 3.15625 1.328125q1.234375 1.3125 1.234375 3.703125q0 0.15625 0 0.4375l-7.21875 0q0.09375 1.59375 0.90625 2.453125q0.8125 0.84375 2.015625 0.84375q0.90625 0 1.546875 -0.46875q0.640625 -0.484375 1.015625 -1.515625zm-5.390625 -2.65625l5.40625 0q-0.109375 -1.21875 -0.625 -1.828125q-0.78125 -0.953125 -2.03125 -0.953125q-1.125 0 -1.90625 0.765625q-0.765625 0.75 -0.84375 2.015625z" fill-rule="nonzero"/><path fill="#cfe2f3" d="m802.49603 312.2476c0 9.251617 21.490356 16.751526 48.0 16.751526c26.509705 0 48.0 -7.4999084 48.0 -16.751526l0 91.50482c0 9.251617 -21.490295 16.751526 -48.0 16.751526c-26.509644 0 -48.0 -7.4999084 -48.0 -16.751526z" fill-rule="evenodd"/><path fill="#e2edf7" d="m802.49603 312.2476c0 -9.251617 21.490356 -16.751526 48.0 -16.751526c26.509705 0 48.0 7.4999084 48.0 16.751526l0 0c0 9.251617 -21.490295 16.751526 -48.0 16.751526c-26.509644 0 -48.0 -7.4999084 -48.0 -16.751526z" fill-rule="evenodd"/><path fill="#000000" fill-opacity="0.0" d="m898.49603 312.2476l0 0c0 9.251617 -21.490295 16.751526 -48.0 16.751526c-26.509644 0 -48.0 -7.4999084 -48.0 -16.751526c0 -9.251617 21.490356 -16.751526 48.0 -16.751526c26.509705 0 48.0 7.4999084 48.0 16.751526l0 91.50482c0 9.251617 -21.490295 16.751526 -48.0 16.751526c-26.509644 0 -48.0 -7.4999084 -48.0 -16.751526l0 -91.50482" fill-rule="evenodd"/><path stroke="#000000" stroke-width="1.0" stroke-linejoin="round" stroke-linecap="butt" d="m898.49603 312.2476l0 0c0 9.251617 -21.490295 16.751526 -48.0 16.751526c-26.509644 0 -48.0 -7.4999084 -48.0 -16.751526c0 -9.251617 21.490356 -16.751526 48.0 -16.751526c26.509705 0 48.0 7.4999084 48.0 16.751526l0 91.50482c0 9.251617 -21.490295 16.751526 -48.0 16.751526c-26.509644 0 -48.0 -7.4999084 -48.0 -16.751526l0 -91.50482" fill-rule="evenodd"/><path fill="#000000" d="m838.3345 374.09262l1.59375 0.234375q0.109375 0.75 0.5625 1.078125q0.609375 0.453125 1.671875 0.453125q1.140625 0 1.75 -0.453125q0.625 -0.453125 0.84375 -1.265625q0.125 -0.5 0.109375 -2.109375q-1.0625 1.265625 -2.671875 1.265625q-2.0 0 -3.09375 -1.4375q-1.09375 -1.4375 -1.09375 -3.453125q0 -1.390625 0.5 -2.5625q0.515625 -1.171875 1.453125 -1.796875q0.953125 -0.640625 2.25 -0.640625q1.703125 0 2.8125 1.375l0 -1.15625l1.515625 0l0 8.359375q0 2.265625 -0.46875 3.203125q-0.453125 0.9375 -1.453125 1.484375q-0.984375 0.546875 -2.453125 0.546875q-1.71875 0 -2.796875 -0.78125q-1.0625 -0.765625 -1.03125 -2.34375zm1.359375 -5.8125q0 1.90625 0.75 2.78125q0.765625 0.875 1.90625 0.875q1.125 0 1.890625 -0.859375q0.765625 -0.875 0.765625 -2.734375q0 -1.78125 -0.796875 -2.671875q-0.78125 -0.90625 -1.890625 -0.90625q-1.09375 0 -1.859375 0.890625q-0.765625 0.875 -0.765625 2.625zm9.328796 -6.453125l0 -1.890625l1.640625 0l0 1.890625l-1.640625 0zm0 11.46875l0 -9.671875l1.640625 0l0 9.671875l-1.640625 0zm7.7229614 -1.46875l0.234375 1.453125q-0.6875 0.140625 -1.234375 0.140625q-0.890625 0 -1.390625 -0.28125q-0.484375 -0.28125 -0.6875 -0.734375q-0.203125 -0.46875 -0.203125 -1.9375l0 -5.578125l-1.203125 0l0 -1.265625l1.203125 0l0 -2.390625l1.625 -0.984375l0 3.375l1.65625 0l0 1.265625l-1.65625 0l0 5.671875q0 0.6875 0.078125 0.890625q0.09375 0.203125 0.28125 0.328125q0.203125 0.109375 0.578125 0.109375q0.265625 0 0.71875 -0.0625z" fill-rule="nonzero"/><path fill="#000000" fill-opacity="0.0" d="m802.49603 358.0l-251.49603 0" fill-rule="evenodd"/><path stroke="#000000" stroke-width="1.0" stroke-linejoin="round" stroke-linecap="butt" d="m802.49603 358.0l-245.49603 0" fill-rule="evenodd"/><path fill="#000000" stroke="#000000" stroke-width="1.0" stroke-linecap="butt" d="m557.0 356.34827l-4.538086 1.6517334l4.538086 1.6517334z" fill-rule="evenodd"/><path fill="#000000" fill-opacity="0.0" d="m643.0 318.0l96.0 0l0 36.0l-96.0 0z" fill-rule="evenodd"/><path fill="#000000" d="m658.41766 344.91998l0 -13.359375l1.640625 0l0 4.796875q1.140625 -1.328125 2.890625 -1.328125q1.078125 0 1.859375 0.421875q0.796875 0.421875 1.140625 1.171875q0.34375 0.75 0.34375 2.171875l0 6.125l-1.640625 0l0 -6.125q0 -1.234375 -0.53125 -1.796875q-0.53125 -0.5625 -1.515625 -0.5625q-0.71875 0 -1.359375 0.390625q-0.640625 0.375 -0.921875 1.015625q-0.265625 0.640625 -0.265625 1.78125l0 5.296875l-1.640625 0zm9.766357 -4.84375q0 -2.6875 1.484375 -3.96875q1.25 -1.078125 3.046875 -1.078125q2.0 0 3.265625 1.3125q1.265625 1.296875 1.265625 3.609375q0 1.859375 -0.5625 2.9375q-0.5625 1.0625 -1.640625 1.65625q-1.0625 0.59375 -2.328125 0.59375q-2.03125 0 -3.28125 -1.296875q-1.25 -1.3125 -1.25 -3.765625zm1.6875 0q0 1.859375 0.796875 2.796875q0.8125 0.921875 2.046875 0.921875q1.21875 0 2.03125 -0.921875q0.8125 -0.9375 0.8125 -2.84375q0 -1.796875 -0.8125 -2.71875q-0.8125 -0.921875 -2.03125 -0.921875q-1.234375 0 -2.046875 0.921875q-0.796875 0.90625 -0.796875 2.765625zm8.688232 0q0 -2.6875 1.484375 -3.96875q1.25 -1.078125 3.046875 -1.078125q2.0 0 3.265625 1.3125q1.265625 1.296875 1.265625 3.609375q0 1.859375 -0.5625 2.9375q-0.5625 1.0625 -1.640625 1.65625q-1.0625 0.59375 -2.328125 0.59375q-2.03125 0 -3.28125 -1.296875q-1.25 -1.3125 -1.25 -3.765625zm1.6875 0q0 1.859375 0.796875 2.796875q0.8125 0.921875 2.046875 0.921875q1.21875 0 2.03125 -0.921875q0.8125 -0.9375 0.8125 -2.84375q0 -1.796875 -0.8125 -2.71875q-0.8125 -0.921875 -2.03125 -0.921875q-1.234375 0 -2.046875 0.921875q-0.796875 0.90625 -0.796875 2.765625zm9.297546 4.84375l0 -13.359375l1.640625 0l0 7.625l3.890625 -3.9375l2.109375 0l-3.6875 3.59375l4.0625 6.078125l-2.015625 0l-3.203125 -4.953125l-1.15625 1.125l0 3.828125l-1.640625 0z" fill-rule="nonzero"/><path fill="#cfe2f3" d="m410.0 623.0l0 0c0 -3.8659668 31.563934 -7.0 70.5 -7.0c38.936096 0 70.5 3.1340332 70.5 7.0l0 28.0c0 3.8659668 -31.563904 7.0 -70.5 7.0c-38.936066 0 -70.5 -3.1340332 -70.5 -7.0z" fill-rule="evenodd"/><path fill="#000000" fill-opacity="0.0" d="m551.0 623.0l0 0c0 3.8659668 -31.563904 7.0 -70.5 7.0c-38.936066 0 -70.5 -3.1340332 -70.5 -7.0" fill-rule="evenodd"/><path fill="#000000" fill-opacity="0.0" d="m410.0 623.0l0 0c0 -3.8659668 31.563934 -7.0 70.5 -7.0c38.936096 0 70.5 3.1340332 70.5 7.0l0 28.0c0 3.8659668 -31.563904 7.0 -70.5 7.0c-38.936066 0 -70.5 -3.1340332 -70.5 -7.0z" fill-rule="evenodd"/><path stroke="#000000" stroke-width="1.0" stroke-linejoin="round" stroke-linecap="butt" d="m551.0 623.0l0 0c0 3.8659668 -31.563904 7.0 -70.5 7.0c-38.936066 0 -70.5 -3.1340332 -70.5 -7.0" fill-rule="evenodd"/><path stroke="#000000" stroke-width="1.0" stroke-linejoin="round" stroke-linecap="butt" d="m410.0 623.0l0 0c0 -3.8659668 31.563934 -7.0 70.5 -7.0c38.936096 0 70.5 3.1340332 70.5 7.0l0 28.0c0 3.8659668 -31.563904 7.0 -70.5 7.0c-38.936066 0 -70.5 -3.1340332 -70.5 -7.0z" fill-rule="evenodd"/><path fill="#000000" d="m459.71722 645.3l3.65625 -9.546875l1.359375 0l3.90625 9.546875l-1.4375 0l-1.109375 -2.890625l-3.984375 0l-1.046875 2.890625l-1.34375 0zm2.75 -3.921875l3.234375 0l-1.0 -2.640625q-0.453125 -1.203125 -0.671875 -1.96875q-0.1875 0.90625 -0.515625 1.8125l-1.046875 2.796875zm7.0303955 6.578125l0 -9.5625l1.078125 0l0 0.890625q0.375 -0.53125 0.84375 -0.78125q0.484375 -0.265625 1.15625 -0.265625q0.875 0 1.546875 0.453125q0.6875 0.453125 1.03125 1.28125q0.34375 0.828125 0.34375 1.828125q0 1.046875 -0.375 1.90625q-0.375 0.84375 -1.109375 1.296875q-0.71875 0.453125 -1.53125 0.453125q-0.578125 0 -1.046875 -0.25q-0.46875 -0.25 -0.765625 -0.625l0 3.375l-1.171875 0zm1.0625 -6.078125q0 1.34375 0.53125 1.984375q0.546875 0.625 1.3125 0.625q0.78125 0 1.34375 -0.65625q0.5625 -0.65625 0.5625 -2.046875q0 -1.3125 -0.546875 -1.96875q-0.546875 -0.671875 -1.296875 -0.671875q-0.75 0 -1.328125 0.703125q-0.578125 0.703125 -0.578125 2.03125zm6.3499756 6.078125l0 -9.5625l1.078125 0l0 0.890625q0.375 -0.53125 0.84375 -0.78125q0.484375 -0.265625 1.15625 -0.265625q0.875 0 1.546875 0.453125q0.6875 0.453125 1.03125 1.28125q0.34375 0.828125 0.34375 1.828125q0 1.046875 -0.375 1.90625q-0.375 0.84375 -1.109375 1.296875q-0.71875 0.453125 -1.53125 0.453125q-0.578125 0 -1.046875 -0.25q-0.46875 -0.25 -0.765625 -0.625l0 3.375l-1.171875 0zm1.0625 -6.078125q0 1.34375 0.53125 1.984375q0.546875 0.625 1.3125 0.625q0.78125 0 1.34375 -0.65625q0.5625 -0.65625 0.5625 -2.046875q0 -1.3125 -0.546875 -1.96875q-0.546875 -0.671875 -1.296875 -0.671875q-0.75 0 -1.328125 0.703125q-0.578125 0.703125 -0.578125 2.03125zm6.3343506 3.421875l0 -9.546875l1.171875 0l0 9.546875l-1.171875 0zm2.99234 -8.1875l0 -1.359375l1.171875 0l0 1.359375l-1.171875 0zm0 8.1875l0 -6.90625l1.171875 0l0 6.90625l-1.171875 0zm7.46109 -2.53125l1.15625 0.15625q-0.1875 1.1875 -0.96875 1.859375q-0.78125 0.671875 -1.921875 0.671875q-1.40625 0 -2.28125 -0.921875q-0.859375 -0.9375 -0.859375 -2.65625q0 -1.125 0.375 -1.96875q0.375 -0.84375 1.125 -1.25q0.765625 -0.421875 1.65625 -0.421875q1.125 0 1.84375 0.578125q0.71875 0.5625 0.921875 1.609375l-1.140625 0.171875q-0.171875 -0.703125 -0.59375 -1.046875q-0.40625 -0.359375 -0.984375 -0.359375q-0.890625 0 -1.453125 0.640625q-0.546875 0.640625 -0.546875 2.0q0 1.40625 0.53125 2.03125q0.546875 0.625 1.40625 0.625q0.6875 0 1.140625 -0.421875q0.46875 -0.421875 0.59375 -1.296875zm6.6640625 1.671875q-0.65625 0.5625 -1.265625 0.796875q-0.59375 0.21875 -1.28125 0.21875q-1.140625 0 -1.75 -0.546875q-0.609375 -0.5625 -0.609375 -1.4375q0 -0.5 0.21875 -0.921875q0.234375 -0.421875 0.609375 -0.671875q0.375 -0.25 0.84375 -0.390625q0.34375 -0.078125 1.046875 -0.171875q1.421875 -0.171875 2.09375 -0.40625q0 -0.234375 0 -0.296875q0 -0.71875 -0.328125 -1.015625q-0.453125 -0.390625 -1.34375 -0.390625q-0.8125 0 -1.21875 0.296875q-0.390625 0.28125 -0.578125 1.015625l-1.140625 -0.15625q0.15625 -0.734375 0.515625 -1.1875q0.359375 -0.453125 1.03125 -0.6875q0.671875 -0.25 1.5625 -0.25q0.890625 0 1.4375 0.203125q0.5625 0.203125 0.8125 0.53125q0.265625 0.3125 0.375 0.796875q0.046875 0.296875 0.046875 1.078125l0 1.5625q0 1.625 0.078125 2.0625q0.078125 0.4375 0.296875 0.828125l-1.21875 0q-0.1875 -0.359375 -0.234375 -0.859375zm-0.09375 -2.609375q-0.640625 0.265625 -1.921875 0.4375q-0.71875 0.109375 -1.015625 0.25q-0.296875 0.125 -0.46875 0.375q-0.15625 0.25 -0.15625 0.546875q0 0.46875 0.34375 0.78125q0.359375 0.3125 1.046875 0.3125q0.671875 0 1.203125 -0.296875q0.53125 -0.296875 0.78125 -0.8125q0.1875 -0.390625 0.1875 -1.171875l0 -0.421875zm5.5531006 2.421875l0.171875 1.03125q-0.5 0.109375 -0.890625 0.109375q-0.640625 0 -1.0 -0.203125q-0.34375 -0.203125 -0.484375 -0.53125q-0.140625 -0.328125 -0.140625 -1.390625l0 -3.96875l-0.859375 0l0 -0.90625l0.859375 0l0 -1.71875l1.171875 -0.703125l0 2.421875l1.171875 0l0 0.90625l-1.171875 0l0 4.046875q0 0.5 0.046875 0.640625q0.0625 0.140625 0.203125 0.234375q0.140625 0.078125 0.40625 0.078125q0.203125 0 0.515625 -0.046875zm1.1561279 -7.140625l0 -1.359375l1.171875 0l0 1.359375l-1.171875 0zm0 8.1875l0 -6.90625l1.171875 0l0 6.90625l-1.171875 0zm2.5079346 -3.453125q0 -1.921875 1.078125 -2.84375q0.890625 -0.765625 2.171875 -0.765625q1.421875 0 2.328125 0.9375q0.90625 0.921875 0.90625 2.578125q0 1.328125 -0.40625 2.09375q-0.390625 0.765625 -1.15625 1.1875q-0.765625 0.421875 -1.671875 0.421875q-1.453125 0 -2.359375 -0.921875q-0.890625 -0.9375 -0.890625 -2.6875zm1.203125 0q0 1.328125 0.578125 1.984375q0.59375 0.65625 1.46875 0.65625q0.875 0 1.453125 -0.65625q0.578125 -0.671875 0.578125 -2.03125q0 -1.28125 -0.59375 -1.9375q-0.578125 -0.65625 -1.4375 -0.65625q-0.875 0 -1.46875 0.65625q-0.578125 0.65625 -0.578125 1.984375zm6.6468506 3.453125l0 -6.90625l1.0625 0l0 0.984375q0.75 -1.140625 2.1875 -1.140625q0.625 0 1.15625 0.21875q0.53125 0.21875 0.78125 0.59375q0.265625 0.359375 0.375 0.859375q0.0625 0.328125 0.0625 1.140625l0 4.25l-1.171875 0l0 -4.203125q0 -0.71875 -0.140625 -1.0625q-0.140625 -0.359375 -0.484375 -0.5625q-0.34375 -0.21875 -0.8125 -0.21875q-0.75 0 -1.296875 0.46875q-0.546875 0.46875 -0.546875 1.796875l0 3.78125l-1.171875 0z" fill-rule="nonzero"/><path fill="#cfe2f3" d="m572.0 626.98425l20.0 -21.65094l0 10.0l0 0c29.826355 -5.005005 52.581482 -20.695068 58.506348 -40.341187l0 0c8.144714 27.00708 -17.5047 53.460938 -58.506348 60.341187l0 10.0z" fill-rule="evenodd"/><path fill="#a5b4c2" d="m652.0 584.9921l0 0c0 -28.714478 -35.8172 -51.992126 -80.0 -51.992126l0 -20.0l0 0c44.1828 0 80.0 23.277649 80.0 51.992126z" fill-rule="evenodd"/><path fill="#000000" fill-opacity="0.0" d="m652.0 584.9921l0 0c0 -28.714478 -35.8172 -51.992126 -80.0 -51.992126l0 -20.0l0 0c44.1828 0 80.0 23.277649 80.0 51.992126l0 20.0l0 0c0 23.708313 -24.678528 44.414062 -60.0 50.341187l0 10.0l-20.0 -18.34906l20.0 -21.65094l0 10.0l0 0c29.826355 -5.005005 52.581482 -20.695068 58.506348 -40.341187" fill-rule="evenodd"/><path stroke="#000000" stroke-width="1.0" stroke-linejoin="round" stroke-linecap="butt" d="m652.0 584.9921l0 0c0 -28.714478 -35.8172 -51.992126 -80.0 -51.992126l0 -20.0l0 0c44.1828 0 80.0 23.277649 80.0 51.992126l0 20.0l0 0c0 23.708313 -24.678528 44.414062 -60.0 50.341187l0 10.0l-20.0 -18.34906l20.0 -21.65094l0 10.0l0 0c29.826355 -5.005005 52.581482 -20.695068 58.506348 -40.341187" fill-rule="evenodd"/><path fill="#000000" d="m581.40625 574.7296l1.15625 -0.1875q0.109375 0.703125 0.546875 1.078125q0.453125 0.359375 1.25 0.359375q0.8125 0 1.203125 -0.328125q0.390625 -0.328125 0.390625 -0.765625q0 -0.390625 -0.359375 -0.625q-0.234375 -0.15625 -1.1875 -0.390625q-1.296875 -0.328125 -1.796875 -0.5625q-0.484375 -0.25 -0.75 -0.65625q-0.25 -0.421875 -0.25 -0.9375q0 -0.453125 0.203125 -0.84375q0.21875 -0.40625 0.578125 -0.671875q0.28125 -0.1875 0.75 -0.328125q0.46875 -0.140625 1.015625 -0.140625q0.8125 0 1.421875 0.234375q0.609375 0.234375 0.90625 0.640625q0.296875 0.390625 0.40625 1.0625l-1.140625 0.15625q-0.078125 -0.53125 -0.453125 -0.828125q-0.375 -0.3125 -1.0625 -0.3125q-0.8125 0 -1.15625 0.265625q-0.34375 0.265625 -0.34375 0.625q0 0.234375 0.140625 0.421875q0.15625 0.1875 0.453125 0.3125q0.171875 0.0625 1.03125 0.296875q1.25 0.328125 1.734375 0.546875q0.5 0.203125 0.78125 0.609375q0.28125 0.40625 0.28125 1.0q0 0.59375 -0.34375 1.109375q-0.34375 0.515625 -1.0 0.796875q-0.640625 0.28125 -1.453125 0.28125q-1.34375 0 -2.046875 -0.5625q-0.703125 -0.5625 -0.90625 -1.65625zm11.8671875 -0.15625l1.203125 0.140625q-0.28125 1.0625 -1.0625 1.65625q-0.765625 0.578125 -1.96875 0.578125q-1.515625 0 -2.40625 -0.9375q-0.890625 -0.9375 -0.890625 -2.609375q0 -1.75 0.890625 -2.703125q0.90625 -0.96875 2.34375 -0.96875q1.390625 0 2.265625 0.9375q0.875 0.9375 0.875 2.65625q0 0.109375 0 0.3125l-5.15625 0q0.0625 1.140625 0.640625 1.75q0.578125 0.59375 1.4375 0.59375q0.65625 0 1.109375 -0.328125q0.453125 -0.34375 0.71875 -1.078125zm-3.84375 -1.90625l3.859375 0q-0.078125 -0.859375 -0.4375 -1.296875q-0.5625 -0.6875 -1.453125 -0.6875q-0.8125 0 -1.359375 0.546875q-0.546875 0.53125 -0.609375 1.4375zm6.5062256 4.125l0 -6.90625l1.0625 0l0 1.046875q0.40625 -0.734375 0.734375 -0.96875q0.34375 -0.234375 0.765625 -0.234375q0.59375 0 1.203125 0.375l-0.40625 1.078125q-0.4375 -0.25 -0.859375 -0.25q-0.390625 0 -0.703125 0.234375q-0.296875 0.234375 -0.421875 0.640625q-0.203125 0.625 -0.203125 1.359375l0 3.625l-1.171875 0zm6.3758545 0l-2.625 -6.90625l1.234375 0l1.484375 4.140625q0.234375 0.65625 0.4375 1.390625q0.15625 -0.546875 0.4375 -1.3125l1.53125 -4.21875l1.21875 0l-2.625 6.90625l-1.09375 0zm4.7578125 -8.1875l0 -1.359375l1.171875 0l0 1.359375l-1.171875 0zm0 8.1875l0 -6.90625l1.171875 0l0 6.90625l-1.171875 0zm2.9454956 0l0 -6.90625l1.0625 0l0 0.984375q0.75 -1.140625 2.1875 -1.140625q0.625 0 1.15625 0.21875q0.53125 0.21875 0.78125 0.59375q0.265625 0.359375 0.375 0.859375q0.0625 0.328125 0.0625 1.140625l0 4.25l-1.171875 0l0 -4.203125q0 -0.71875 -0.140625 -1.0625q-0.140625 -0.359375 -0.484375 -0.5625q-0.34375 -0.21875 -0.8125 -0.21875q-0.75 0 -1.296875 0.46875q-0.546875 0.46875 -0.546875 1.796875l0 3.78125l-1.171875 0zm7.1937256 0.578125l1.140625 0.15625q0.078125 0.53125 0.40625 0.78125q0.4375 0.3125 1.1875 0.3125q0.8125 0 1.25 -0.328125q0.453125 -0.3125 0.609375 -0.90625q0.09375 -0.359375 0.078125 -1.5q-0.765625 0.90625 -1.90625 0.90625q-1.4375 0 -2.21875 -1.03125q-0.78125 -1.03125 -0.78125 -2.46875q0 -0.984375 0.359375 -1.8125q0.359375 -0.84375 1.03125 -1.296875q0.6875 -0.453125 1.609375 -0.453125q1.21875 0 2.015625 0.984375l0 -0.828125l1.078125 0l0 5.96875q0 1.609375 -0.328125 2.28125q-0.328125 0.6875 -1.046875 1.078125q-0.703125 0.390625 -1.75 0.390625q-1.234375 0 -2.0 -0.5625q-0.75 -0.5625 -0.734375 -1.671875zm0.984375 -4.15625q0 1.359375 0.53125 1.984375q0.546875 0.625 1.359375 0.625q0.796875 0 1.34375 -0.625q0.546875 -0.625 0.546875 -1.953125q0 -1.265625 -0.5625 -1.90625q-0.5625 -0.640625 -1.359375 -0.640625q-0.765625 0 -1.3125 0.640625q-0.546875 0.625 -0.546875 1.875z" fill-rule="nonzero"/><path fill="#000000" d="m627.7775 578.01086q-1.21875 -1.375 -2.546875 -2.234375l0.765625 -1.015625q1.625 0.96875 2.6875 2.1875l-0.90625 1.0625z" fill-rule="nonzero"/><path fill="#000000" d="m588.8281 589.44836l1.265625 0.3125q-0.390625 1.5625 -1.421875 2.375q-1.03125 0.8125 -2.53125 0.8125q-1.53125 0 -2.5 -0.625q-0.96875 -0.625 -1.484375 -1.8125q-0.5 -1.1875 -0.5 -2.5625q0 -1.484375 0.5625 -2.59375q0.578125 -1.109375 1.625 -1.6875q1.0625 -0.578125 2.328125 -0.578125q1.421875 0 2.390625 0.734375q0.984375 0.71875 1.375 2.046875l-1.25 0.296875q-0.328125 -1.046875 -0.96875 -1.515625q-0.625 -0.484375 -1.578125 -0.484375q-1.09375 0 -1.84375 0.53125q-0.734375 0.53125 -1.03125 1.421875q-0.296875 0.875 -0.296875 1.828125q0 1.21875 0.34375 2.125q0.359375 0.90625 1.109375 1.359375q0.75 0.4375 1.625 0.4375q1.0625 0 1.796875 -0.609375q0.734375 -0.609375 0.984375 -1.8125zm2.828247 3.34375l0 -9.546875l3.28125 0q1.109375 0 1.703125 0.140625q0.8125 0.1875 1.390625 0.6875q0.765625 0.640625 1.140625 1.640625q0.375 0.984375 0.375 2.25q0 1.09375 -0.265625 1.9375q-0.25 0.828125 -0.65625 1.390625q-0.390625 0.546875 -0.859375 0.859375q-0.46875 0.3125 -1.140625 0.484375q-0.65625 0.15625 -1.53125 0.15625l-3.4375 0zm1.265625 -1.125l2.03125 0q0.9375 0 1.46875 -0.171875q0.546875 -0.1875 0.875 -0.5q0.4375 -0.453125 0.6875 -1.203125q0.25 -0.765625 0.25 -1.84375q0 -1.5 -0.5 -2.296875q-0.484375 -0.8125 -1.1875 -1.078125q-0.5 -0.203125 -1.625 -0.203125l-2.0 0l0 7.296875z" fill-rule="nonzero"/><path fill="#000000" fill-opacity="0.0" d="m528.0 138.0l158.01575 0l0 48.472443l-158.01575 0z" fill-rule="evenodd"/><path fill="#000000" d="m544.5 164.92l0 -1.21875q-0.90625 1.4375 -2.703125 1.4375q-1.15625 0 -2.125 -0.640625q-0.96875 -0.640625 -1.5 -1.78125q-0.53125 -1.140625 -0.53125 -2.625q0 -1.453125 0.484375 -2.625q0.484375 -1.1875 1.4375 -1.8125q0.96875 -0.625 2.171875 -0.625q0.875 0 1.546875 0.375q0.6875 0.359375 1.109375 0.953125l0 -4.796875l1.640625 0l0 13.359375l-1.53125 0zm-5.171875 -4.828125q0 1.859375 0.78125 2.78125q0.78125 0.921875 1.84375 0.921875q1.078125 0 1.828125 -0.875q0.75 -0.890625 0.75 -2.6875q0 -1.984375 -0.765625 -2.90625q-0.765625 -0.9375 -1.890625 -0.9375q-1.078125 0 -1.8125 0.890625q-0.734375 0.890625 -0.734375 2.8125zm15.594482 3.640625q-0.921875 0.765625 -1.765625 1.09375q-0.828125 0.3125 -1.796875 0.3125q-1.59375 0 -2.453125 -0.78125q-0.859375 -0.78125 -0.859375 -1.984375q0 -0.71875 0.328125 -1.296875q0.328125 -0.59375 0.84375 -0.9375q0.53125 -0.359375 1.1875 -0.546875q0.46875 -0.125 1.453125 -0.25q1.984375 -0.234375 2.921875 -0.5625q0.015625 -0.34375 0.015625 -0.421875q0 -1.0 -0.46875 -1.421875q-0.625 -0.546875 -1.875 -0.546875q-1.15625 0 -1.703125 0.40625q-0.546875 0.40625 -0.8125 1.421875l-1.609375 -0.21875q0.21875 -1.015625 0.71875 -1.640625q0.5 -0.640625 1.453125 -0.984375q0.953125 -0.34375 2.1875 -0.34375q1.25 0 2.015625 0.296875q0.78125 0.28125 1.140625 0.734375q0.375 0.4375 0.515625 1.109375q0.078125 0.421875 0.078125 1.515625l0 2.1875q0 2.28125 0.109375 2.890625q0.109375 0.59375 0.40625 1.15625l-1.703125 0q-0.265625 -0.515625 -0.328125 -1.1875zm-0.140625 -3.671875q-0.890625 0.375 -2.671875 0.625q-1.015625 0.140625 -1.4375 0.328125q-0.421875 0.1875 -0.65625 0.53125q-0.21875 0.34375 -0.21875 0.78125q0 0.65625 0.5 1.09375q0.5 0.4375 1.453125 0.4375q0.9375 0 1.671875 -0.40625q0.75 -0.421875 1.09375 -1.140625q0.265625 -0.5625 0.265625 -1.640625l0 -0.609375zm7.7819824 3.390625l0.234375 1.453125q-0.6875 0.140625 -1.234375 0.140625q-0.890625 0 -1.390625 -0.28125q-0.484375 -0.28125 -0.6875 -0.734375q-0.203125 -0.46875 -0.203125 -1.9375l0 -5.578125l-1.203125 0l0 -1.265625l1.203125 0l0 -2.390625l1.625 -0.984375l0 3.375l1.65625 0l0 1.265625l-1.65625 0l0 5.671875q0 0.6875 0.078125 0.890625q0.09375 0.203125 0.28125 0.328125q0.203125 0.109375 0.578125 0.109375q0.265625 0 0.71875 -0.0625zm7.9176636 0.28125q-0.921875 0.765625 -1.765625 1.09375q-0.828125 0.3125 -1.796875 0.3125q-1.59375 0 -2.453125 -0.78125q-0.859375 -0.78125 -0.859375 -1.984375q0 -0.71875 0.328125 -1.296875q0.328125 -0.59375 0.84375 -0.9375q0.53125 -0.359375 1.1875 -0.546875q0.46875 -0.125 1.453125 -0.25q1.984375 -0.234375 2.921875 -0.5625q0.015625 -0.34375 0.015625 -0.421875q0 -1.0 -0.46875 -1.421875q-0.625 -0.546875 -1.875 -0.546875q-1.15625 0 -1.703125 0.40625q-0.546875 0.40625 -0.8125 1.421875l-1.609375 -0.21875q0.21875 -1.015625 0.71875 -1.640625q0.5 -0.640625 1.453125 -0.984375q0.953125 -0.34375 2.1875 -0.34375q1.25 0 2.015625 0.296875q0.78125 0.28125 1.140625 0.734375q0.375 0.4375 0.515625 1.109375q0.078125 0.421875 0.078125 1.515625l0 2.1875q0 2.28125 0.109375 2.890625q0.109375 0.59375 0.40625 1.15625l-1.703125 0q-0.265625 -0.515625 -0.328125 -1.1875zm-0.140625 -3.671875q-0.890625 0.375 -2.671875 0.625q-1.015625 0.140625 -1.4375 0.328125q-0.421875 0.1875 -0.65625 0.53125q-0.21875 0.34375 -0.21875 0.78125q0 0.65625 0.5 1.09375q0.5 0.4375 1.453125 0.4375q0.9375 0 1.671875 -0.40625q0.75 -0.421875 1.09375 -1.140625q0.265625 -0.5625 0.265625 -1.640625l0 -0.609375zm3.5475464 1.96875l1.625 -0.25q0.125 0.96875 0.75 1.5q0.625 0.515625 1.75 0.515625q1.125 0 1.671875 -0.453125q0.546875 -0.46875 0.546875 -1.09375q0 -0.546875 -0.484375 -0.875q-0.328125 -0.21875 -1.671875 -0.546875q-1.8125 -0.46875 -2.515625 -0.796875q-0.6875 -0.328125 -1.046875 -0.90625q-0.359375 -0.59375 -0.359375 -1.3125q0 -0.640625 0.296875 -1.1875q0.296875 -0.5625 0.8125 -0.921875q0.375 -0.28125 1.03125 -0.46875q0.671875 -0.203125 1.421875 -0.203125q1.140625 0 2.0 0.328125q0.859375 0.328125 1.265625 0.890625q0.421875 0.5625 0.578125 1.5l-1.609375 0.21875q-0.109375 -0.75 -0.640625 -1.171875q-0.515625 -0.421875 -1.46875 -0.421875q-1.140625 0 -1.625 0.375q-0.46875 0.375 -0.46875 0.875q0 0.3125 0.1875 0.578125q0.203125 0.265625 0.640625 0.4375q0.234375 0.09375 1.4375 0.421875q1.75 0.453125 2.4375 0.75q0.6875 0.296875 1.078125 0.859375q0.390625 0.5625 0.390625 1.40625q0 0.828125 -0.484375 1.546875q-0.46875 0.71875 -1.375 1.125q-0.90625 0.390625 -2.046875 0.390625q-1.875 0 -2.875 -0.78125q-0.984375 -0.78125 -1.25 -2.328125zm16.609375 -0.21875l1.6875 0.203125q-0.40625 1.484375 -1.484375 2.3125q-1.078125 0.8125 -2.765625 0.8125q-2.125 0 -3.375 -1.296875q-1.234375 -1.3125 -1.234375 -3.671875q0 -2.453125 1.25 -3.796875q1.265625 -1.34375 3.265625 -1.34375q1.9375 0 3.15625 1.328125q1.234375 1.3125 1.234375 3.703125q0 0.15625 0 0.4375l-7.21875 0q0.09375 1.59375 0.90625 2.453125q0.8125 0.84375 2.015625 0.84375q0.90625 0 1.546875 -0.46875q0.640625 -0.484375 1.015625 -1.515625zm-5.390625 -2.65625l5.40625 0q-0.109375 -1.21875 -0.625 -1.828125q-0.78125 -0.953125 -2.03125 -0.953125q-1.125 0 -1.90625 0.765625q-0.765625 0.75 -0.84375 2.015625zm12.719482 4.296875l0.234375 1.453125q-0.6875 0.140625 -1.234375 0.140625q-0.890625 0 -1.390625 -0.28125q-0.484375 -0.28125 -0.6875 -0.734375q-0.203125 -0.46875 -0.203125 -1.9375l0 -5.578125l-1.203125 0l0 -1.265625l1.203125 0l0 -2.390625l1.625 -0.984375l0 3.375l1.65625 0l0 1.265625l-1.65625 0l0 5.671875q0 0.6875 0.078125 0.890625q0.09375 0.203125 0.28125 0.328125q0.203125 0.109375 0.578125 0.109375q0.265625 0 0.71875 -0.0625z" fill-rule="nonzero"/></g></svg>